<svg width="519" height="49" xmlns="http://www.w3.org/2000/svg" xmlns:xlink="http://www.w3.org/1999/xlink" overflow="hidden"><defs><clipPath id="clip0"><path d="M162 269 681 269 681 318 162 318Z" fill-rule="evenodd" clip-rule="evenodd"/></clipPath><linearGradient x1="411.966" y1="285.1" x2="411.966" y2="304.3" gradientUnits="userSpaceOnUse" spreadMethod="reflect" id="fill1"><stop offset="0" stop-color="#1A1A1A"/><stop offset="1" stop-color="#1A1A1A"/></linearGradient></defs><g clip-path="url(#clip0)" transform="translate(-162 -269)"><rect x="162" y="270" width="519" height="48" fill="#D9D9D9"/><path d="M363.557 294.715C363.052 294.715 362.639 294.906 362.319 295.289 361.998 295.672 361.838 296.178 361.838 296.809L361.838 297.449C361.838 298.001 361.984 298.452 362.276 298.801 362.567 299.15 362.95 299.324 363.424 299.324 363.987 299.324 364.423 299.107 364.733 298.672 365.043 298.237 365.198 297.621 365.198 296.824 365.198 295.418 364.651 294.715 363.557 294.715ZM466.916 294.488C466.52 294.488 466.178 294.652 465.889 294.98 465.6 295.309 465.424 295.717 465.362 296.207L468.307 296.207C468.307 295.061 467.843 294.488 466.916 294.488ZM429.916 294.488C429.52 294.488 429.178 294.652 428.889 294.98 428.6 295.309 428.424 295.717 428.362 296.207L431.307 296.207C431.307 295.061 430.843 294.488 429.916 294.488ZM372.916 294.488C372.521 294.488 372.178 294.652 371.889 294.98 371.6 295.309 371.424 295.717 371.362 296.207L374.307 296.207C374.307 295.061 373.843 294.488 372.916 294.488ZM450.409 293.02 452.877 293.02 452.877 301.02 450.409 301.02ZM441.401 293.02 444.041 293.02 445.432 297.949C445.588 298.507 445.679 298.98 445.705 299.371L445.737 299.371C445.773 299.001 445.869 298.543 446.026 297.996L447.448 293.02 450.026 293.02 447.049 301.02 444.237 301.02ZM440.018 292.879C440.278 292.879 440.481 292.91 440.627 292.973L440.627 295.246C440.33 295.085 439.984 295.004 439.588 295.004 439.052 295.004 438.632 295.201 438.33 295.594 438.028 295.987 437.877 296.522 437.877 297.199L437.877 301.02 435.409 301.02 435.409 293.02 437.877 293.02 437.877 294.504 437.909 294.504C438.299 293.421 439.002 292.879 440.018 292.879ZM474.385 292.824C474.739 292.824 475.099 292.852 475.463 292.906 475.828 292.961 476.187 293.04 476.541 293.145L476.541 295.051C476.229 294.868 475.894 294.732 475.537 294.641 475.181 294.549 474.83 294.504 474.487 294.504 474.325 294.504 474.173 294.518 474.03 294.547 473.886 294.576 473.76 294.617 473.651 294.672 473.541 294.727 473.455 294.797 473.393 294.883 473.33 294.969 473.299 295.066 473.299 295.176 473.299 295.322 473.346 295.447 473.44 295.551 473.534 295.655 473.656 295.745 473.807 295.82 473.958 295.896 474.126 295.964 474.311 296.023 474.496 296.083 474.679 296.145 474.862 296.207 475.19 296.322 475.487 296.447 475.752 296.582 476.018 296.717 476.246 296.876 476.436 297.059 476.626 297.241 476.772 297.454 476.873 297.699 476.975 297.944 477.026 298.236 477.026 298.574 477.026 299.048 476.923 299.453 476.717 299.789 476.511 300.125 476.238 300.398 475.897 300.609 475.556 300.82 475.162 300.974 474.717 301.07 474.272 301.167 473.81 301.215 473.33 301.215 472.45 301.215 471.635 301.079 470.885 300.809L470.885 298.809C471.291 299.053 471.696 299.236 472.1 299.355 472.504 299.475 472.885 299.535 473.244 299.535 473.682 299.535 474.027 299.475 474.28 299.355 474.532 299.236 474.659 299.053 474.659 298.809 474.659 298.652 474.601 298.522 474.487 298.418 474.372 298.314 474.225 298.223 474.045 298.145 473.866 298.066 473.669 297.996 473.455 297.934 473.242 297.871 473.036 297.801 472.838 297.723 472.52 297.603 472.241 297.474 471.998 297.336 471.756 297.198 471.553 297.038 471.389 296.855 471.225 296.673 471.1 296.462 471.014 296.223 470.928 295.983 470.885 295.699 470.885 295.371 470.885 294.923 470.983 294.538 471.178 294.215 471.373 293.892 471.634 293.628 471.959 293.422 472.285 293.216 472.657 293.065 473.076 292.969 473.496 292.872 473.932 292.824 474.385 292.824ZM466.932 292.824C468.099 292.824 469.001 293.171 469.639 293.863 470.277 294.556 470.596 295.496 470.596 296.684L470.596 297.723 465.377 297.723C465.461 298.884 466.192 299.465 467.573 299.465 468.453 299.465 469.226 299.257 469.893 298.84L469.893 300.621C469.153 301.017 468.192 301.215 467.01 301.215 465.718 301.215 464.716 300.857 464.002 300.141 463.289 299.424 462.932 298.426 462.932 297.145 462.932 295.816 463.317 294.764 464.088 293.988 464.859 293.212 465.807 292.824 466.932 292.824ZM459.424 292.824C460.367 292.824 461.049 292.949 461.471 293.199L461.471 295.293C460.955 294.908 460.38 294.715 459.744 294.715 459.036 294.715 458.475 294.922 458.061 295.336 457.647 295.75 457.44 296.322 457.44 297.051 457.44 297.759 457.638 298.315 458.034 298.719 458.429 299.122 458.974 299.324 459.666 299.324 460.281 299.324 460.882 299.132 461.471 298.746L461.471 300.73C460.914 301.053 460.109 301.215 459.057 301.215 457.828 301.215 456.833 300.842 456.073 300.098 455.312 299.353 454.932 298.392 454.932 297.215 454.932 295.855 455.339 294.784 456.155 294 456.97 293.216 458.06 292.824 459.424 292.824ZM429.932 292.824C431.099 292.824 432.001 293.171 432.639 293.863 433.277 294.556 433.596 295.496 433.596 296.684L433.596 297.723 428.377 297.723C428.461 298.884 429.192 299.465 430.573 299.465 431.453 299.465 432.226 299.257 432.893 298.84L432.893 300.621C432.153 301.017 431.192 301.215 430.01 301.215 428.718 301.215 427.716 300.857 427.002 300.141 426.289 299.424 425.932 298.426 425.932 297.145 425.932 295.816 426.317 294.764 427.088 293.988 427.859 293.212 428.807 292.824 429.932 292.824ZM383.479 292.824C385.25 292.824 386.135 293.923 386.135 296.121L386.135 301.02 383.674 301.02 383.674 296.574C383.674 295.335 383.231 294.715 382.346 294.715 381.919 294.715 381.567 294.879 381.291 295.207 381.015 295.535 380.877 295.952 380.877 296.457L380.877 301.02 378.409 301.02 378.409 293.02 380.877 293.02 380.877 294.285 380.909 294.285C381.497 293.311 382.354 292.824 383.479 292.824ZM372.932 292.824C374.099 292.824 375.001 293.171 375.639 293.863 376.277 294.556 376.596 295.496 376.596 296.684L376.596 297.723 371.377 297.723C371.461 298.884 372.192 299.465 373.573 299.465 374.453 299.465 375.226 299.257 375.893 298.84L375.893 300.621C375.153 301.017 374.192 301.215 373.01 301.215 371.718 301.215 370.716 300.857 370.002 300.141 369.289 299.424 368.932 298.426 368.932 297.145 368.932 295.816 369.317 294.764 370.088 293.988 370.859 293.212 371.807 292.824 372.932 292.824ZM364.479 292.824C365.515 292.824 366.316 293.18 366.881 293.891 367.446 294.602 367.729 295.569 367.729 296.793 367.729 298.126 367.399 299.197 366.741 300.004 366.082 300.811 365.205 301.215 364.112 301.215 363.148 301.215 362.414 300.84 361.909 300.09L361.877 300.09 361.877 304.699 359.409 304.699 359.409 293.02 361.877 293.02 361.877 294.223 361.909 294.223C362.518 293.29 363.375 292.824 364.479 292.824ZM400.924 291.816C400.898 292.145 400.833 292.47 400.729 292.793L399.51 296.59 402.377 296.59 401.174 292.824C401.086 292.543 401.023 292.207 400.987 291.816ZM352.494 291.801C351.609 291.801 350.906 292.133 350.385 292.797 349.864 293.461 349.604 294.34 349.604 295.434 349.604 296.543 349.864 297.421 350.385 298.066 350.906 298.712 351.588 299.035 352.432 299.035 353.302 299.035 353.992 298.721 354.502 298.094 355.013 297.466 355.268 296.595 355.268 295.48 355.268 294.319 355.021 293.415 354.526 292.77 354.031 292.124 353.354 291.801 352.494 291.801ZM391.174 291.754 391.174 295.246 392.166 295.246C393.51 295.246 394.182 294.658 394.182 293.48 394.182 292.329 393.51 291.754 392.166 291.754ZM408.651 289.816 411.174 289.816 411.174 301.02 408.651 301.02ZM399.526 289.816 402.518 289.816 406.502 301.02 403.752 301.02 402.955 298.527 398.971 298.527 398.182 301.02 395.448 301.02ZM388.651 289.816 392.604 289.816C395.427 289.816 396.838 291.007 396.838 293.387 396.838 294.512 396.433 295.422 395.623 296.117 394.813 296.813 393.731 297.16 392.377 297.16L391.174 297.16 391.174 301.02 388.651 301.02ZM421.487 289.629C422.07 289.629 422.587 289.664 423.037 289.734 423.488 289.805 423.903 289.913 424.284 290.059L424.284 292.395C424.096 292.264 423.892 292.15 423.67 292.051 423.449 291.952 423.221 291.87 422.987 291.805 422.752 291.74 422.519 291.691 422.287 291.66 422.056 291.629 421.836 291.613 421.627 291.613 421.341 291.613 421.08 291.641 420.846 291.695 420.612 291.75 420.414 291.827 420.252 291.926 420.091 292.025 419.966 292.143 419.877 292.281 419.789 292.419 419.744 292.574 419.744 292.746 419.744 292.934 419.794 293.102 419.893 293.25 419.992 293.398 420.132 293.539 420.315 293.672 420.497 293.805 420.718 293.935 420.979 294.063 421.239 294.19 421.534 294.322 421.862 294.457 422.31 294.645 422.712 294.844 423.069 295.055 423.425 295.266 423.731 295.504 423.987 295.77 424.242 296.035 424.437 296.339 424.573 296.68 424.708 297.021 424.776 297.418 424.776 297.871 424.776 298.496 424.657 299.021 424.42 299.445 424.183 299.87 423.862 300.214 423.455 300.477 423.049 300.74 422.576 300.928 422.037 301.043 421.498 301.158 420.929 301.215 420.33 301.215 419.716 301.215 419.131 301.163 418.576 301.059 418.022 300.954 417.541 300.798 417.135 300.59L417.135 298.09C417.588 298.47 418.08 298.755 418.612 298.945 419.143 299.135 419.679 299.23 420.221 299.23 420.539 299.23 420.816 299.202 421.053 299.145 421.29 299.087 421.488 299.008 421.647 298.906 421.806 298.805 421.924 298.685 422.002 298.547 422.08 298.409 422.119 298.259 422.119 298.098 422.119 297.879 422.057 297.684 421.932 297.512 421.807 297.34 421.636 297.181 421.42 297.035 421.204 296.889 420.948 296.749 420.651 296.613 420.354 296.478 420.034 296.34 419.69 296.199 418.815 295.835 418.162 295.389 417.733 294.863 417.303 294.337 417.088 293.702 417.088 292.957 417.088 292.374 417.205 291.872 417.44 291.453 417.674 291.034 417.993 290.689 418.397 290.418 418.8 290.147 419.268 289.948 419.799 289.82 420.33 289.693 420.893 289.629 421.487 289.629ZM352.565 289.629C354.164 289.629 355.457 290.152 356.444 291.199 357.431 292.246 357.924 293.626 357.924 295.34 357.924 297.1 357.412 298.52 356.389 299.598 355.366 300.676 354.031 301.215 352.385 301.215 350.781 301.215 349.474 300.693 348.463 299.648 347.453 298.604 346.948 297.243 346.948 295.566 346.948 293.796 347.461 292.363 348.487 291.27 349.513 290.176 350.872 289.629 352.565 289.629ZM451.659 289.215C452.08 289.215 452.423 289.332 452.686 289.566 452.949 289.801 453.08 290.103 453.08 290.473 453.08 290.848 452.949 291.155 452.686 291.395 452.423 291.634 452.08 291.754 451.659 291.754 451.242 291.754 450.901 291.63 450.635 291.383 450.369 291.135 450.237 290.832 450.237 290.473 450.237 290.103 450.369 289.801 450.635 289.566 450.901 289.332 451.242 289.215 451.659 289.215Z" fill="url(#fill1)" fill-rule="evenodd"/><text fill="#000000" fill-opacity="0" font-family="Arial,Arial_MSFontService,sans-serif" font-size="15.4844" x="346.948" y="302.764">OpenPAI Services</text><path d="M292.09 304.399C292.09 304.5 292.09 304.5 292.09 304.5 272.454 304.5 272.454 304.5 272.454 304.5 272.454 304.5 272.454 304.5 272.454 304.5 272.352 304.5 272.352 304.5 272.25 304.5 267.468 304.5 263.5 300.546 263.5 295.68 263.5 290.813 267.468 286.961 272.25 286.961 272.861 286.961 273.471 286.961 274.081 287.062 275.811 284.325 278.762 282.5 282.221 282.5 287.206 282.5 291.276 286.251 291.785 291.118 291.785 291.118 291.785 291.118 291.785 291.118 295.549 291.118 298.5 294.058 298.5 297.809 298.5 301.357 295.651 304.297 292.09 304.399Z" stroke="#0078D4" stroke-width="1.33333" stroke-miterlimit="8" fill="none" fill-rule="evenodd"/><path d="M295.5 297.619 295.5 312.5 283.5 312.5 283.5 284.5 295.5 284.5 295.5 297.619M286.028 288.997 292.896 288.997M286.028 303.692 292.896 303.692M286.028 307.864 292.896 307.864" stroke="#0078D4" stroke-width="1.33333" stroke-miterlimit="8" fill="#D9D9D9" fill-rule="evenodd"/></g></svg>