<svg width="519" height="80" xmlns="http://www.w3.org/2000/svg" xmlns:xlink="http://www.w3.org/1999/xlink" overflow="hidden"><defs><clipPath id="clip0"><path d="M162 176 681 176 681 256 162 256Z" fill-rule="evenodd" clip-rule="evenodd"/></clipPath><linearGradient x1="408.728" y1="206.27" x2="408.728" y2="225.47" gradientUnits="userSpaceOnUse" spreadMethod="reflect" id="fill1"><stop offset="0" stop-color="#1A1A1A"/><stop offset="1" stop-color="#1A1A1A"/></linearGradient></defs><g clip-path="url(#clip0)" transform="translate(-162 -176)"><rect x="162" y="176" width="519" height="79" fill="#F2F2F2"/><path d="M408.879 214.19 411.34 214.19 411.34 218.799C411.34 219.93 411.788 220.495 412.683 220.495 413.126 220.495 413.48 220.34 413.746 220.03 414.012 219.72 414.144 219.299 414.144 218.768L414.144 214.19 416.605 214.19 416.605 222.19 414.144 222.19 414.144 220.971 414.105 220.971C413.496 221.914 412.681 222.385 411.66 222.385 409.806 222.385 408.879 221.263 408.879 219.018ZM431.519 212.987C431.493 213.315 431.428 213.641 431.324 213.964L430.105 217.76 432.972 217.76 431.769 213.995C431.681 213.714 431.618 213.378 431.582 212.987ZM441.769 212.925 441.769 216.417 442.762 216.417C444.105 216.417 444.777 215.828 444.777 214.651 444.777 213.5 444.105 212.925 442.762 212.925ZM368.769 212.878 368.769 215.995 369.863 215.995C370.405 215.995 370.84 215.839 371.168 215.526 371.501 215.208 371.668 214.815 371.668 214.346 371.668 213.367 371.082 212.878 369.91 212.878ZM449.246 210.987 451.769 210.987 451.769 222.19 449.246 222.19ZM439.246 210.987 443.199 210.987C446.022 210.987 447.433 212.177 447.433 214.557 447.433 215.682 447.028 216.592 446.219 217.288 445.409 217.983 444.327 218.331 442.972 218.331L441.769 218.331 441.769 222.19 439.246 222.19ZM430.121 210.987 433.113 210.987 437.097 222.19 434.347 222.19 433.551 219.698 429.566 219.698 428.777 222.19 426.043 222.19ZM393.207 210.987 402.113 210.987 402.113 213.042 398.918 213.042 398.918 222.19 396.387 222.19 396.387 213.042 393.207 213.042ZM377.246 210.987 383.707 210.987 383.707 213.042 379.769 213.042 379.769 215.534 383.433 215.534 383.433 217.581 379.769 217.581 379.769 220.143 383.965 220.143 383.965 222.19 377.246 222.19ZM366.246 210.987 370.246 210.987C372.965 210.987 374.324 212.003 374.324 214.034 374.324 214.425 374.264 214.785 374.144 215.116 374.025 215.447 373.855 215.745 373.637 216.01 373.418 216.276 373.153 216.505 372.844 216.698 372.534 216.891 372.189 217.042 371.808 217.151L371.808 217.182C371.975 217.234 372.137 217.319 372.293 217.436 372.449 217.553 372.6 217.69 372.746 217.846 372.892 218.003 373.031 218.171 373.164 218.35 373.297 218.53 373.418 218.706 373.527 218.878L375.644 222.19 372.746 222.19 371.004 219.307C370.874 219.089 370.749 218.893 370.629 218.721 370.509 218.549 370.388 218.402 370.265 218.28 370.143 218.158 370.015 218.064 369.883 217.999 369.75 217.934 369.605 217.901 369.449 217.901L368.769 217.901 368.769 222.19 366.246 222.19ZM389.082 210.8C389.665 210.8 390.182 210.835 390.633 210.905 391.083 210.975 391.499 211.083 391.879 211.229L391.879 213.565C391.691 213.435 391.487 213.32 391.265 213.221 391.044 213.122 390.816 213.04 390.582 212.975 390.347 212.91 390.114 212.862 389.883 212.831 389.651 212.8 389.431 212.784 389.222 212.784 388.936 212.784 388.676 212.811 388.441 212.866 388.207 212.921 388.009 212.997 387.847 213.096 387.686 213.195 387.561 213.314 387.472 213.452 387.384 213.59 387.34 213.745 387.34 213.917 387.34 214.104 387.389 214.272 387.488 214.421 387.587 214.569 387.728 214.71 387.91 214.842 388.092 214.975 388.314 215.105 388.574 215.233 388.834 215.361 389.129 215.492 389.457 215.628 389.905 215.815 390.307 216.014 390.664 216.225 391.021 216.436 391.327 216.675 391.582 216.94 391.837 217.206 392.032 217.509 392.168 217.85 392.303 218.191 392.371 218.589 392.371 219.042 392.371 219.667 392.252 220.191 392.015 220.616 391.778 221.04 391.457 221.384 391.051 221.647 390.644 221.91 390.172 222.099 389.633 222.214 389.094 222.328 388.525 222.385 387.926 222.385 387.311 222.385 386.726 222.333 386.172 222.229 385.617 222.125 385.137 221.969 384.73 221.76L384.73 219.26C385.183 219.641 385.676 219.926 386.207 220.116 386.738 220.306 387.275 220.401 387.816 220.401 388.134 220.401 388.411 220.372 388.648 220.315 388.885 220.258 389.083 220.178 389.242 220.077 389.401 219.975 389.519 219.855 389.597 219.717 389.676 219.579 389.715 219.43 389.715 219.268 389.715 219.049 389.652 218.854 389.527 218.682 389.402 218.51 389.232 218.352 389.015 218.206 388.799 218.06 388.543 217.919 388.246 217.784 387.949 217.648 387.629 217.51 387.285 217.37 386.41 217.005 385.758 216.56 385.328 216.034 384.898 215.508 384.683 214.872 384.683 214.128 384.683 213.544 384.801 213.043 385.035 212.624 385.269 212.204 385.588 211.859 385.992 211.589 386.396 211.318 386.863 211.119 387.394 210.991 387.926 210.863 388.488 210.8 389.082 210.8ZM419.004 210.346 421.472 210.346 421.472 222.19 419.004 222.19ZM406.972 210.159C407.472 210.159 407.889 210.211 408.222 210.315L408.222 212.237C407.905 212.112 407.6 212.05 407.308 212.05 406.517 212.05 406.121 212.479 406.121 213.339L406.121 214.19 407.949 214.19 407.949 216.01 406.121 216.01 406.121 222.19 403.66 222.19 403.66 216.01 402.316 216.01 402.316 214.19 403.66 214.19 403.66 213.198C403.66 212.286 403.957 211.552 404.551 210.995 405.144 210.438 405.952 210.159 406.972 210.159Z" fill="url(#fill1)" fill-rule="evenodd"/><text fill="#000000" fill-opacity="0" font-family="Arial,Arial_MSFontService,sans-serif" font-size="12.2266" x="366.246" y="220.857">RESTful API</text><path d="M294.059 216.726C294.5 216.726 294.5 216.726 294.5 216.726 294.5 231.116 294.5 231.116 294.5 231.116 294.5 232.99 288.457 234.5 280.995 234.5 273.543 234.5 267.5 232.99 267.5 231.116 267.5 216.726 267.5 216.726 267.5 216.726 267.941 216.726 267.941 216.726 267.941 216.726 269.436 218.189 274.715 219.267 280.995 219.267 287.285 219.267 292.554 218.189 294.059 216.726ZM280.995 212.5C273.543 212.5 267.5 214.01 267.5 215.884 267.5 217.751 273.543 219.267 280.995 219.267 288.457 219.267 294.5 217.751 294.5 215.884 294.5 214.01 288.457 212.5 280.995 212.5Z" stroke="#0078D4" stroke-width="1.33333" stroke-linecap="square" stroke-miterlimit="8" fill="none" fill-rule="evenodd"/><path d="M266 210C266 206.134 272.716 203 281 203 289.284 203 296 206.134 296 210 296 213.866 289.284 217 281 217 272.716 217 266 213.866 266 210Z" fill="#F2F2F2" fill-rule="evenodd"/><path d="M270.5 195.5C270.5 199.802 270.5 199.802 270.5 199.802M278.761 195.5C278.761 199.802 278.761 199.802 278.761 199.802M286.933 195.5C286.933 199.802 286.933 199.802 286.933 199.802M276.067 198.458C276.067 196.844 276.067 196.844 276.067 196.844 276.067 196.127 275.439 195.5 274.631 195.5 274.631 195.5 274.631 195.5 274.631 195.5 273.823 195.5 273.194 196.127 273.194 196.844 273.194 198.458 273.194 198.458 273.194 198.458 273.194 199.175 273.823 199.892 274.631 199.892 274.631 199.892 274.631 199.892 274.631 199.892 275.439 199.892 276.067 199.175 276.067 198.458ZM284.239 198.458C284.239 196.844 284.239 196.844 284.239 196.844 284.239 196.127 283.61 195.5 282.802 195.5 282.802 195.5 282.802 195.5 282.802 195.5 282.084 195.5 281.455 196.127 281.455 196.844 281.455 198.458 281.455 198.458 281.455 198.458 281.455 199.175 282.084 199.892 282.802 199.892 282.802 199.892 282.802 199.892 282.802 199.892 283.61 199.892 284.239 199.175 284.239 198.458ZM292.5 198.458C292.5 196.844 292.5 196.844 292.5 196.844 292.5 196.127 291.782 195.5 291.063 195.5 291.063 195.5 291.063 195.5 291.063 195.5 290.255 195.5 289.627 196.127 289.627 196.844 289.627 198.458 289.627 198.458 289.627 198.458 289.627 199.175 290.255 199.892 291.063 199.892 291.063 199.892 291.063 199.892 291.063 199.892 291.782 199.892 292.5 199.175 292.5 198.458ZM270.5 210.109C270.5 214.5 270.5 214.5 270.5 214.5M278.761 210.109C278.761 214.5 278.761 214.5 278.761 214.5M286.933 210.109C286.933 214.5 286.933 214.5 286.933 214.5M276.067 213.066C276.067 211.542 276.067 211.542 276.067 211.542 276.067 210.736 275.439 210.109 274.631 210.109 274.631 210.109 274.631 210.109 274.631 210.109 273.823 210.109 273.194 210.736 273.194 211.542 273.194 213.066 273.194 213.066 273.194 213.066 273.194 213.873 273.823 214.5 274.631 214.5 274.631 214.5 274.631 214.5 274.631 214.5 275.439 214.5 276.067 213.873 276.067 213.066ZM284.239 213.066C284.239 211.542 284.239 211.542 284.239 211.542 284.239 210.736 283.61 210.109 282.802 210.109 282.802 210.109 282.802 210.109 282.802 210.109 282.084 210.109 281.455 210.736 281.455 211.542 281.455 213.066 281.455 213.066 281.455 213.066 281.455 213.873 282.084 214.5 282.802 214.5 282.802 214.5 282.802 214.5 282.802 214.5 283.61 214.5 284.239 213.873 284.239 213.066ZM292.5 213.066C292.5 211.542 292.5 211.542 292.5 211.542 292.5 210.736 291.782 210.109 291.063 210.109 291.063 210.109 291.063 210.109 291.063 210.109 290.255 210.109 289.627 210.736 289.627 211.542 289.627 213.066 289.627 213.066 289.627 213.066 289.627 213.873 290.255 214.5 291.063 214.5 291.063 214.5 291.063 214.5 291.063 214.5 291.782 214.5 292.5 213.873 292.5 213.066ZM276.067 202.939C276.067 207.241 276.067 207.241 276.067 207.241M284.239 202.939C284.239 207.241 284.239 207.241 284.239 207.241M273.374 205.896C273.374 204.283 273.374 204.283 273.374 204.283 273.374 203.566 272.745 202.939 271.937 202.939 271.937 202.939 271.937 202.939 271.937 202.939 271.129 202.939 270.5 203.566 270.5 204.283 270.5 205.896 270.5 205.896 270.5 205.896 270.5 206.613 271.129 207.33 271.937 207.33 271.937 207.33 271.937 207.33 271.937 207.33 272.745 207.33 273.374 206.613 273.374 205.896ZM281.545 205.896C281.545 204.283 281.545 204.283 281.545 204.283 281.545 203.566 280.916 202.939 280.108 202.939 280.108 202.939 280.108 202.939 280.108 202.939 279.39 202.939 278.761 203.566 278.761 204.283 278.761 205.896 278.761 205.896 278.761 205.896 278.761 206.613 279.39 207.33 280.108 207.33 280.108 207.33 280.108 207.33 280.108 207.33 280.916 207.33 281.545 206.613 281.545 205.896ZM289.806 205.896C289.806 204.283 289.806 204.283 289.806 204.283 289.806 203.566 289.088 202.939 288.369 202.939 288.369 202.939 288.369 202.939 288.369 202.939 287.561 202.939 286.933 203.566 286.933 204.283 286.933 205.896 286.933 205.896 286.933 205.896 286.933 206.613 287.561 207.33 288.369 207.33 288.369 207.33 288.369 207.33 288.369 207.33 289.088 207.33 289.806 206.613 289.806 205.896ZM292.5 202.939C292.5 207.241 292.5 207.241 292.5 207.241" stroke="#0078D4" stroke-width="1.33333" stroke-linecap="square" stroke-miterlimit="8" fill="none" fill-rule="evenodd"/></g></svg>