<svg width="164" height="70" xmlns="http://www.w3.org/2000/svg" xmlns:xlink="http://www.w3.org/1999/xlink" overflow="hidden"><defs><clipPath id="clip0"><path d="M517 92 681 92 681 162 517 162Z" fill-rule="evenodd" clip-rule="evenodd"/></clipPath></defs><g clip-path="url(#clip0)" transform="translate(-517 -92)"><rect x="517" y="93" width="164" height="68" fill="#0078D7"/><text fill="#FFFFFF" font-family="Segoe UI,Segoe UI_MSFontService,sans-serif" font-weight="700" font-size="15" transform="translate(565.078 123)">VS Code </text><path d="M565.078 124.785 580.328 124.785 595.578 124.785 610.828 124.785 626.078 124.785 626.078 125.785 610.828 125.785 595.578 125.785 580.328 125.785 565.078 125.785Z" fill="#FFFFFF" fill-rule="evenodd"/><text fill="#FFFFFF" font-family="Segoe UI,Segoe UI_MSFontService,sans-serif" font-weight="700" font-size="15" transform="translate(565.078 141)">Extension</text><path d="M565.078 142.785 581.828 142.785 598.578 142.785 615.328 142.785 632.078 142.785 632.078 143.785 615.328 143.785 598.578 143.785 581.828 143.785 565.078 143.785Z" fill="#FFFFFF" fill-rule="evenodd"/><path d="M535.267 118.331C540.922 124.078 540.922 124.078 540.922 124.078 535.267 129.733 535.267 129.733 535.267 129.733M540.922 124.078C527.422 124.078 527.422 124.078 527.422 124.078M538.642 126.358C532.987 132.014 532.987 132.014 532.987 132.014 538.642 137.669 538.642 137.669 538.642 137.669M532.987 132.014C546.487 132.014 546.487 132.014 546.487 132.014M537 114.5C529.52 114.5 523.5 120.612 523.5 128 523.5 135.48 529.52 141.5 537 141.5 544.389 141.5 550.5 135.48 550.5 128 550.5 120.612 544.389 114.5 537 114.5Z" stroke="#FFFFFF" stroke-miterlimit="8" fill="none" fill-rule="evenodd"/></g></svg>