<svg width="519" height="80" xmlns="http://www.w3.org/2000/svg" xmlns:xlink="http://www.w3.org/1999/xlink" overflow="hidden"><defs><clipPath id="clip0"><path d="M162 532 681 532 681 612 162 612Z" fill-rule="evenodd" clip-rule="evenodd"/></clipPath><linearGradient x1="419.696" y1="555.562" x2="419.696" y2="574.762" gradientUnits="userSpaceOnUse" spreadMethod="reflect" id="fill1"><stop offset="0" stop-color="#1A1A1A"/><stop offset="1" stop-color="#1A1A1A"/></linearGradient><linearGradient x1="419.696" y1="572.842" x2="419.696" y2="592.042" gradientUnits="userSpaceOnUse" spreadMethod="reflect" id="fill2"><stop offset="0" stop-color="#1A1A1A"/><stop offset="1" stop-color="#1A1A1A"/></linearGradient></defs><g clip-path="url(#clip0)" transform="translate(-162 -532)"><rect x="162" y="533" width="519" height="78" fill="#F2F2F2"/><path d="M374.004 565.177C373.509 565.177 373.099 565.362 372.773 565.732 372.448 566.101 372.285 566.583 372.285 567.177L372.285 567.997C372.285 568.513 372.433 568.94 372.73 569.278 373.027 569.617 373.407 569.786 373.871 569.786 374.433 569.786 374.869 569.569 375.179 569.134 375.489 568.699 375.644 568.083 375.644 567.286 375.644 566.625 375.502 566.108 375.218 565.735 374.935 565.363 374.53 565.177 374.004 565.177ZM480.363 564.95C479.967 564.95 479.625 565.114 479.336 565.443 479.047 565.771 478.871 566.18 478.808 566.669L481.754 566.669C481.754 565.523 481.29 564.95 480.363 564.95ZM422.363 564.95C421.967 564.95 421.625 565.114 421.336 565.443 421.047 565.771 420.871 566.18 420.808 566.669L423.754 566.669C423.754 565.523 423.29 564.95 422.363 564.95ZM408.363 564.95C407.967 564.95 407.625 565.114 407.336 565.443 407.047 565.771 406.871 566.18 406.808 566.669L409.754 566.669C409.754 565.523 409.29 564.95 408.363 564.95ZM383.363 564.95C382.967 564.95 382.625 565.114 382.336 565.443 382.047 565.771 381.871 566.18 381.808 566.669L384.754 566.669C384.754 565.523 384.29 564.95 383.363 564.95ZM453.73 563.482 456.191 563.482 456.191 568.091C456.191 569.221 456.639 569.786 457.535 569.786 457.978 569.786 458.332 569.631 458.597 569.321 458.863 569.012 458.996 568.591 458.996 568.06L458.996 563.482 461.457 563.482 461.457 571.482 458.996 571.482 458.996 570.263 458.957 570.263C458.347 571.206 457.532 571.677 456.511 571.677 454.657 571.677 453.73 570.555 453.73 568.31ZM359.73 563.482 362.191 563.482 362.191 568.091C362.191 569.221 362.639 569.786 363.535 569.786 363.978 569.786 364.332 569.631 364.597 569.321 364.863 569.012 364.996 568.591 364.996 568.06L364.996 563.482 367.457 563.482 367.457 571.482 364.996 571.482 364.996 570.263 364.957 570.263C364.347 571.206 363.532 571.677 362.511 571.677 360.657 571.677 359.73 570.555 359.73 568.31ZM489.464 563.341C489.725 563.341 489.928 563.372 490.074 563.435L490.074 565.708C489.777 565.547 489.431 565.466 489.035 565.466 488.498 565.466 488.079 565.663 487.777 566.056 487.475 566.449 487.324 566.984 487.324 567.661L487.324 571.482 484.855 571.482 484.855 563.482 487.324 563.482 487.324 564.966 487.355 564.966C487.746 563.883 488.449 563.341 489.464 563.341ZM393.465 563.341C393.725 563.341 393.928 563.372 394.074 563.435L394.074 565.708C393.777 565.547 393.431 565.466 393.035 565.466 392.498 565.466 392.079 565.663 391.777 566.056 391.475 566.449 391.324 566.984 391.324 567.661L391.324 571.482 388.855 571.482 388.855 563.482 391.324 563.482 391.324 564.966 391.355 564.966C391.746 563.883 392.449 563.341 393.465 563.341ZM480.379 563.286C481.545 563.286 482.448 563.633 483.086 564.325 483.724 565.018 484.043 565.958 484.043 567.146L484.043 568.185 478.824 568.185C478.907 569.346 479.639 569.927 481.019 569.927 481.899 569.927 482.673 569.719 483.339 569.302L483.339 571.083C482.6 571.479 481.639 571.677 480.457 571.677 479.165 571.677 478.162 571.319 477.449 570.603 476.735 569.887 476.379 568.888 476.379 567.607 476.379 566.278 476.764 565.226 477.535 564.45 478.306 563.674 479.254 563.286 480.379 563.286ZM466.832 563.286C467.186 563.286 467.545 563.314 467.91 563.368 468.274 563.423 468.634 563.502 468.988 563.607L468.988 565.513C468.675 565.331 468.341 565.194 467.984 565.103 467.627 565.012 467.277 564.966 466.933 564.966 466.772 564.966 466.619 564.98 466.476 565.009 466.333 565.038 466.207 565.079 466.097 565.134 465.988 565.189 465.902 565.259 465.839 565.345 465.777 565.431 465.746 565.528 465.746 565.638 465.746 565.784 465.793 565.909 465.886 566.013 465.98 566.117 466.103 566.207 466.254 566.282 466.405 566.358 466.573 566.426 466.757 566.485 466.942 566.545 467.126 566.607 467.308 566.669 467.636 566.784 467.933 566.909 468.199 567.044 468.464 567.18 468.692 567.338 468.882 567.521 469.073 567.703 469.218 567.917 469.32 568.161 469.422 568.406 469.472 568.698 469.472 569.036 469.472 569.51 469.369 569.915 469.164 570.251 468.958 570.587 468.685 570.86 468.343 571.071 468.002 571.282 467.609 571.436 467.164 571.532 466.718 571.629 466.256 571.677 465.777 571.677 464.897 571.677 464.082 571.542 463.332 571.271L463.332 569.271C463.738 569.515 464.143 569.698 464.547 569.818 464.95 569.937 465.332 569.997 465.691 569.997 466.129 569.997 466.474 569.937 466.726 569.818 466.979 569.698 467.105 569.515 467.105 569.271 467.105 569.114 467.048 568.984 466.933 568.88 466.819 568.776 466.672 568.685 466.492 568.607 466.312 568.528 466.116 568.458 465.902 568.396 465.688 568.333 465.483 568.263 465.285 568.185 464.967 568.065 464.687 567.936 464.445 567.798 464.203 567.66 464 567.5 463.836 567.318 463.672 567.135 463.547 566.924 463.461 566.685 463.375 566.445 463.332 566.161 463.332 565.833 463.332 565.385 463.429 565 463.625 564.677 463.82 564.354 464.08 564.09 464.406 563.884 464.731 563.678 465.104 563.527 465.523 563.431 465.942 563.334 466.379 563.286 466.832 563.286ZM430.832 563.286C431.186 563.286 431.545 563.314 431.91 563.368 432.274 563.423 432.634 563.502 432.988 563.607L432.988 565.513C432.675 565.331 432.341 565.194 431.984 565.103 431.627 565.012 431.277 564.966 430.933 564.966 430.772 564.966 430.619 564.98 430.476 565.009 430.333 565.038 430.207 565.079 430.097 565.134 429.988 565.189 429.902 565.259 429.839 565.345 429.777 565.431 429.746 565.528 429.746 565.638 429.746 565.784 429.793 565.909 429.886 566.013 429.98 566.117 430.103 566.207 430.254 566.282 430.405 566.358 430.573 566.426 430.757 566.485 430.942 566.545 431.126 566.607 431.308 566.669 431.636 566.784 431.933 566.909 432.199 567.044 432.464 567.18 432.692 567.338 432.882 567.521 433.073 567.703 433.218 567.917 433.32 568.161 433.422 568.406 433.472 568.698 433.472 569.036 433.472 569.51 433.369 569.915 433.164 570.251 432.958 570.587 432.685 570.86 432.343 571.071 432.002 571.282 431.609 571.436 431.164 571.532 430.718 571.629 430.256 571.677 429.777 571.677 428.897 571.677 428.082 571.542 427.332 571.271L427.332 569.271C427.738 569.515 428.143 569.698 428.547 569.818 428.95 569.937 429.332 569.997 429.691 569.997 430.129 569.997 430.474 569.937 430.726 569.818 430.979 569.698 431.105 569.515 431.105 569.271 431.105 569.114 431.048 568.984 430.933 568.88 430.819 568.776 430.672 568.685 430.492 568.607 430.312 568.528 430.116 568.458 429.902 568.396 429.688 568.333 429.483 568.263 429.285 568.185 428.967 568.065 428.687 567.936 428.445 567.798 428.203 567.66 428 567.5 427.836 567.318 427.672 567.135 427.547 566.924 427.461 566.685 427.375 566.445 427.332 566.161 427.332 565.833 427.332 565.385 427.429 565 427.625 564.677 427.82 564.354 428.08 564.09 428.406 563.884 428.731 563.678 429.104 563.527 429.523 563.431 429.942 563.334 430.379 563.286 430.832 563.286ZM422.379 563.286C423.545 563.286 424.448 563.633 425.086 564.325 425.724 565.018 426.043 565.958 426.043 567.146L426.043 568.185 420.824 568.185C420.907 569.346 421.639 569.927 423.019 569.927 423.899 569.927 424.673 569.719 425.339 569.302L425.339 571.083C424.6 571.479 423.639 571.677 422.457 571.677 421.165 571.677 420.162 571.319 419.449 570.603 418.735 569.887 418.379 568.888 418.379 567.607 418.379 566.278 418.764 565.226 419.535 564.45 420.306 563.674 421.254 563.286 422.379 563.286ZM408.379 563.286C409.545 563.286 410.448 563.633 411.086 564.325 411.724 565.018 412.043 565.958 412.043 567.146L412.043 568.185 406.824 568.185C406.907 569.346 407.639 569.927 409.019 569.927 409.899 569.927 410.673 569.719 411.34 569.302L411.34 571.083C410.6 571.479 409.639 571.677 408.457 571.677 407.165 571.677 406.162 571.319 405.449 570.603 404.735 569.887 404.379 568.888 404.379 567.607 404.379 566.278 404.764 565.226 405.535 564.45 406.306 563.674 407.254 563.286 408.379 563.286ZM399.925 563.286C401.696 563.286 402.582 564.385 402.582 566.583L402.582 571.482 400.121 571.482 400.121 567.036C400.121 565.797 399.678 565.177 398.793 565.177 398.366 565.177 398.014 565.341 397.738 565.669 397.462 565.997 397.324 566.414 397.324 566.919L397.324 571.482 394.855 571.482 394.855 563.482 397.324 563.482 397.324 564.747 397.355 564.747C397.944 563.773 398.8 563.286 399.925 563.286ZM383.379 563.286C384.545 563.286 385.448 563.633 386.086 564.325 386.724 565.018 387.043 565.958 387.043 567.146L387.043 568.185 381.824 568.185C381.907 569.346 382.639 569.927 384.019 569.927 384.899 569.927 385.673 569.719 386.34 569.302L386.34 571.083C385.6 571.479 384.639 571.677 383.457 571.677 382.165 571.677 381.162 571.319 380.449 570.603 379.735 569.887 379.379 568.888 379.379 567.607 379.379 566.278 379.764 565.226 380.535 564.45 381.306 563.674 382.254 563.286 383.379 563.286ZM473.894 561.052 473.894 563.482 475.691 563.482 475.691 565.302 473.894 565.302 473.894 568.536C473.894 569.37 474.225 569.786 474.886 569.786 475.147 569.786 475.415 569.711 475.691 569.56L475.691 571.388C475.326 571.581 474.777 571.677 474.043 571.677 472.303 571.677 471.433 570.773 471.433 568.966L471.433 565.302 470.136 565.302 470.136 563.482 471.433 563.482 471.433 561.755ZM415.894 561.052 415.894 563.482 417.691 563.482 417.691 565.302 415.894 565.302 415.894 568.536C415.894 569.37 416.225 569.786 416.886 569.786 417.147 569.786 417.415 569.711 417.691 569.56L417.691 571.388C417.326 571.581 416.777 571.677 416.043 571.677 414.303 571.677 413.433 570.773 413.433 568.966L413.433 565.302 412.136 565.302 412.136 563.482 413.433 563.482 413.433 561.755ZM350.097 560.278 352.621 560.278 352.621 565.575 352.66 565.575C352.722 565.43 352.826 565.221 352.972 564.95L356.066 560.278 359.074 560.278 355.168 565.622 359.41 571.482 356.222 571.482 352.957 566.614C352.894 566.521 352.795 566.315 352.66 565.997L352.621 565.997 352.621 571.482 350.097 571.482ZM444.363 560.091C445.457 560.091 446.379 560.229 447.129 560.505L447.129 562.935C446.379 562.487 445.524 562.263 444.566 562.263 443.514 562.263 442.665 562.594 442.019 563.255 441.373 563.917 441.05 564.812 441.05 565.943 441.05 567.026 441.355 567.889 441.964 568.532 442.574 569.176 443.394 569.497 444.425 569.497 445.41 569.497 446.311 569.258 447.129 568.778L447.129 571.083C446.311 571.479 445.243 571.677 443.925 571.677 442.207 571.677 440.855 571.172 439.871 570.161 438.886 569.151 438.394 567.805 438.394 566.122 438.394 564.331 438.948 562.877 440.054 561.763 441.161 560.648 442.597 560.091 444.363 560.091ZM448.855 559.638 451.324 559.638 451.324 571.482 448.855 571.482ZM369.855 559.638 372.324 559.638 372.324 564.685 372.355 564.685C372.965 563.752 373.832 563.286 374.957 563.286 375.988 563.286 376.782 563.64 377.34 564.349 377.897 565.057 378.175 566.026 378.175 567.255 378.175 568.588 377.85 569.659 377.199 570.466 376.548 571.273 375.678 571.677 374.59 571.677 373.605 571.677 372.86 571.302 372.355 570.552L372.324 570.552 372.324 571.482 369.855 571.482Z" fill="url(#fill1)" fill-rule="evenodd"/><text fill="#000000" fill-opacity="0" font-family="Arial,Arial_MSFontService,sans-serif" font-size="12.0391" x="350.097" y="570.172">Kubernetes Cluster </text><path d="M409.071 584.693 407.618 584.88C406.816 584.984 406.415 585.346 406.415 585.966 406.415 586.247 406.512 586.478 406.708 586.657 406.903 586.837 407.167 586.927 407.501 586.927 407.964 586.927 408.342 586.767 408.634 586.446 408.925 586.126 409.071 585.721 409.071 585.232ZM390.071 584.693 388.618 584.88C387.816 584.984 387.415 585.346 387.415 585.966 387.415 586.247 387.512 586.478 387.708 586.657 387.903 586.837 388.167 586.927 388.501 586.927 388.964 586.927 389.342 586.767 389.634 586.446 389.925 586.126 390.071 585.721 390.071 585.232ZM416.524 582.177C415.977 582.177 415.548 582.39 415.235 582.818 414.923 583.245 414.766 583.846 414.766 584.622 414.766 585.289 414.915 585.816 415.212 586.204 415.509 586.592 415.915 586.786 416.43 586.786 416.941 586.786 417.354 586.59 417.669 586.196 417.984 585.803 418.141 585.284 418.141 584.638L418.141 584.005C418.141 583.5 417.992 583.069 417.692 582.712 417.393 582.355 417.003 582.177 416.524 582.177ZM450.243 581.95C449.847 581.95 449.505 582.114 449.216 582.443 448.927 582.771 448.751 583.18 448.688 583.669L451.634 583.669C451.634 582.523 451.17 581.95 450.243 581.95ZM426.243 581.95C425.847 581.95 425.505 582.114 425.216 582.443 424.927 582.771 424.751 583.18 424.688 583.669L427.634 583.669C427.634 582.523 427.17 581.95 426.243 581.95ZM459.805 580.286C461.576 580.286 462.462 581.385 462.462 583.583L462.462 588.482 460.001 588.482 460.001 584.036C460.001 582.797 459.558 582.177 458.673 582.177 458.246 582.177 457.894 582.341 457.618 582.669 457.342 582.997 457.204 583.414 457.204 583.919L457.204 588.482 454.735 588.482 454.735 580.482 457.204 580.482 457.204 581.747 457.235 581.747C457.824 580.773 458.68 580.286 459.805 580.286ZM450.259 580.286C451.425 580.286 452.328 580.633 452.966 581.325 453.604 582.018 453.923 582.958 453.923 584.146L453.923 585.185 448.704 585.185C448.787 586.346 449.519 586.927 450.899 586.927 451.779 586.927 452.553 586.719 453.219 586.302L453.219 588.083C452.48 588.479 451.519 588.677 450.337 588.677 449.045 588.677 448.042 588.319 447.329 587.603 446.615 586.887 446.259 585.888 446.259 584.607 446.259 583.278 446.644 582.226 447.415 581.45 448.186 580.674 449.134 580.286 450.259 580.286ZM436.821 580.286C437.951 580.286 438.725 580.784 439.141 581.778 439.751 580.784 440.647 580.286 441.829 580.286 443.568 580.286 444.438 581.359 444.438 583.505L444.438 588.482 441.977 588.482 441.977 583.919C441.977 582.758 441.55 582.177 440.696 582.177 440.29 582.177 439.959 582.351 439.704 582.7 439.449 583.049 439.321 583.484 439.321 584.005L439.321 588.482 436.852 588.482 436.852 583.872C436.852 582.742 436.433 582.177 435.594 582.177 435.173 582.177 434.835 582.344 434.583 582.677 434.33 583.01 434.204 583.463 434.204 584.036L434.204 588.482 431.735 588.482 431.735 580.482 434.204 580.482 434.204 581.732 434.235 581.732C434.49 581.305 434.848 580.957 435.309 580.689 435.77 580.42 436.274 580.286 436.821 580.286ZM426.259 580.286C427.425 580.286 428.328 580.633 428.966 581.325 429.604 582.018 429.923 582.958 429.923 584.146L429.923 585.185 424.704 585.185C424.787 586.346 425.519 586.927 426.899 586.927 427.779 586.927 428.553 586.719 429.219 586.302L429.219 588.083C428.48 588.479 427.519 588.677 426.337 588.677 425.045 588.677 424.042 588.319 423.329 587.603 422.615 586.887 422.259 585.888 422.259 584.607 422.259 583.278 422.644 582.226 423.415 581.45 424.186 580.674 425.134 580.286 426.259 580.286ZM415.891 580.286C416.865 580.286 417.594 580.661 418.079 581.411L418.11 581.411 418.11 580.482 420.579 580.482 420.579 587.568C420.579 589.052 420.149 590.202 419.29 591.017 418.43 591.832 417.186 592.239 415.555 592.239 414.477 592.239 413.623 592.086 412.993 591.778L412.993 589.7C413.816 590.18 414.647 590.419 415.485 590.419 416.318 590.419 416.964 590.199 417.423 589.759 417.881 589.319 418.11 588.721 418.11 587.966L418.11 587.333 418.079 587.333C417.516 588.229 416.686 588.677 415.587 588.677 414.566 588.677 413.756 588.318 413.157 587.599 412.558 586.88 412.259 585.917 412.259 584.708 412.259 583.354 412.592 582.278 413.259 581.482 413.925 580.685 414.803 580.286 415.891 580.286ZM407.969 580.286C410.251 580.286 411.391 581.424 411.391 583.7L411.391 588.482 409.055 588.482 409.055 587.333 409.024 587.333C408.488 588.229 407.693 588.677 406.641 588.677 405.865 588.677 405.255 588.457 404.809 588.017 404.364 587.577 404.141 586.989 404.141 586.255 404.141 584.703 405.061 583.807 406.899 583.568L409.071 583.278C409.071 582.403 408.597 581.966 407.649 581.966 406.696 581.966 405.79 582.25 404.93 582.818L404.93 580.958C405.274 580.781 405.744 580.625 406.341 580.489 406.937 580.354 407.48 580.286 407.969 580.286ZM399.805 580.286C401.576 580.286 402.462 581.385 402.462 583.583L402.462 588.482 400.001 588.482 400.001 584.036C400.001 582.797 399.558 582.177 398.673 582.177 398.246 582.177 397.894 582.341 397.618 582.669 397.342 582.997 397.204 583.414 397.204 583.919L397.204 588.482 394.735 588.482 394.735 580.482 397.204 580.482 397.204 581.747 397.235 581.747C397.824 580.773 398.68 580.286 399.805 580.286ZM388.969 580.286C391.251 580.286 392.391 581.424 392.391 583.7L392.391 588.482 390.055 588.482 390.055 587.333 390.024 587.333C389.488 588.229 388.693 588.677 387.641 588.677 386.865 588.677 386.255 588.457 385.809 588.017 385.364 587.577 385.141 586.989 385.141 586.255 385.141 584.703 386.061 583.807 387.899 583.568L390.071 583.278C390.071 582.403 389.597 581.966 388.649 581.966 387.696 581.966 386.79 582.25 385.93 582.818L385.93 580.958C386.274 580.781 386.744 580.625 387.341 580.489 387.937 580.354 388.48 580.286 388.969 580.286ZM467.774 578.052 467.774 580.482 469.571 580.482 469.571 582.302 467.774 582.302 467.774 585.536C467.774 586.37 468.105 586.786 468.766 586.786 469.027 586.786 469.295 586.711 469.571 586.56L469.571 588.388C469.206 588.581 468.657 588.677 467.923 588.677 466.183 588.677 465.313 587.773 465.313 585.966L465.313 582.302 464.016 582.302 464.016 580.482 465.313 580.482 465.313 578.755ZM370.977 577.278 374.673 577.278 376.962 583.919C377.144 584.45 377.277 584.984 377.36 585.521L377.407 585.521C377.548 584.901 377.696 584.362 377.852 583.903L380.141 577.278 383.743 577.278 383.743 588.482 381.251 588.482 381.251 581.778C381.251 581.055 381.282 580.255 381.345 579.38L381.282 579.38C381.152 580.068 381.035 580.562 380.93 580.864L378.305 588.482 376.243 588.482 373.571 580.943C373.498 580.739 373.381 580.219 373.22 579.38L373.149 579.38C373.217 580.484 373.251 581.453 373.251 582.286L373.251 588.482 370.977 588.482Z" fill="url(#fill2)" fill-rule="evenodd"/><text fill="#000000" fill-opacity="0" font-family="Arial,Arial_MSFontService,sans-serif" font-size="14.9609" x="370.977" y="590.369">Management</text><path d="M268.063 575.5C263.97 575.5 263.97 575.5 263.97 575.5 263.97 572.728 263.97 572.728 263.97 572.728 266.741 572.728 266.741 572.728 266.741 572.728 266.741 571.24 266.741 571.24 266.741 571.24 269.385 571.24 269.385 571.24 269.385 571.24 269.385 572.728 269.385 572.728 269.385 572.728 271.967 572.728 271.967 572.728 271.967 572.728 271.967 575.5 271.967 575.5 271.967 575.5L268.063 575.5ZM263.97 574.08C259.5 574.08 259.5 574.08 259.5 574.08M271.967 574.08C276.5 574.08 276.5 574.08 276.5 574.08M268 571.24C268 569.347 268 569.347 268 569.347M271.526 569.279C271.526 557.447 271.526 557.447 271.526 557.447 271.526 556.906 271.148 556.5 270.645 556.5 265.356 556.5 265.356 556.5 265.356 556.5 264.852 556.5 264.474 556.906 264.474 557.447 264.474 569.279 264.474 569.279 264.474 569.279L271.526 569.279ZM266.426 559.002C269.574 559.002 269.574 559.002 269.574 559.002M266.426 564.141C269.574 564.141 269.574 564.141 269.574 564.141M266.426 566.642C269.574 566.642 269.574 566.642 269.574 566.642" stroke="#0078D4" stroke-width="1.33333" stroke-miterlimit="8" fill="none" fill-rule="evenodd"/><path d="M294.567 575.5C290.233 575.5 290.233 575.5 290.233 575.5 290.233 572.728 290.233 572.728 290.233 572.728 293.167 572.728 293.167 572.728 293.167 572.728 293.167 571.24 293.167 571.24 293.167 571.24 295.967 571.24 295.967 571.24 295.967 571.24 295.967 572.728 295.967 572.728 295.967 572.728 298.7 572.728 298.7 572.728 298.7 572.728 298.7 575.5 298.7 575.5 298.7 575.5L294.567 575.5ZM290.233 574.08C285.5 574.08 285.5 574.08 285.5 574.08M298.7 574.08C303.5 574.08 303.5 574.08 303.5 574.08M294.5 571.24C294.5 569.347 294.5 569.347 294.5 569.347M298.233 569.279C298.233 557.447 298.233 557.447 298.233 557.447 298.233 556.906 297.833 556.5 297.3 556.5 291.7 556.5 291.7 556.5 291.7 556.5 291.167 556.5 290.767 556.906 290.767 557.447 290.767 569.279 290.767 569.279 290.767 569.279L298.233 569.279ZM292.833 559.002C296.167 559.002 296.167 559.002 296.167 559.002M292.833 564.141C296.167 564.141 296.167 564.141 296.167 564.141M292.833 566.642C296.167 566.642 296.167 566.642 296.167 566.642" stroke="#0078D4" stroke-width="1.33333" stroke-miterlimit="8" fill="none" fill-rule="evenodd"/><path d="M281.433 572.5C285.767 572.5 285.767 572.5 285.767 572.5 285.767 575.272 285.767 575.272 285.767 575.272 282.833 575.272 282.833 575.272 282.833 575.272 282.833 576.76 282.833 576.76 282.833 576.76 280.033 576.76 280.033 576.76 280.033 576.76 280.033 575.272 280.033 575.272 280.033 575.272 277.3 575.272 277.3 575.272 277.3 575.272 277.3 572.5 277.3 572.5 277.3 572.5L281.433 572.5ZM285.767 573.92C290.5 573.92 290.5 573.92 290.5 573.92M277.3 573.92C272.5 573.92 272.5 573.92 272.5 573.92M281.5 576.76C281.5 578.653 281.5 578.653 281.5 578.653M277.767 578.721C277.767 590.553 277.767 590.553 277.767 590.553 277.767 591.094 278.167 591.5 278.7 591.5 284.3 591.5 284.3 591.5 284.3 591.5 284.833 591.5 285.233 591.094 285.233 590.553 285.233 578.721 285.233 578.721 285.233 578.721L277.767 578.721ZM283.167 588.998C279.833 588.998 279.833 588.998 279.833 588.998M283.167 583.859C279.833 583.859 279.833 583.859 279.833 583.859M283.167 581.358C279.833 581.358 279.833 581.358 279.833 581.358" stroke="#0078D4" stroke-width="1.33333" stroke-miterlimit="8" fill="none" fill-rule="evenodd"/></g></svg>