<svg width="165" height="70" xmlns="http://www.w3.org/2000/svg" xmlns:xlink="http://www.w3.org/1999/xlink" overflow="hidden"><defs><clipPath id="clip0"><path d="M339 92 504 92 504 162 339 162Z" fill-rule="evenodd" clip-rule="evenodd"/></clipPath></defs><g clip-path="url(#clip0)" transform="translate(-339 -92)"><rect x="340" y="93" width="163" height="68" fill="#0078D7"/><text fill="#FFFFFF" font-family="Segoe UI,Segoe UI_MSFontService,sans-serif" font-weight="700" font-size="15" transform="translate(393.255 130)">Client SDK</text><path d="M393.255 132.094 411.505 132.094 429.755 132.094 448.005 132.094 466.255 132.094 466.255 133.094 448.005 133.094 429.755 133.094 411.505 133.094 393.255 133.094Z" fill="#FFFFFF" fill-rule="evenodd"/><path d="M378.125 118.263C378.5 118.263 378.5 118.263 378.5 118.263 378.5 137.886 378.5 137.886 378.5 137.886 378.5 140.441 373.352 142.5 366.995 142.5 360.648 142.5 355.5 140.441 355.5 137.886 355.5 118.263 355.5 118.263 355.5 118.263 355.876 118.263 355.876 118.263 355.876 118.263 357.149 120.257 361.646 121.728 366.995 121.728 372.354 121.728 376.842 120.257 378.125 118.263ZM366.995 112.5C360.648 112.5 355.5 114.559 355.5 117.114 355.5 119.66 360.648 121.728 366.995 121.728 373.352 121.728 378.5 119.66 378.5 117.114 378.5 114.559 373.352 112.5 366.995 112.5Z" stroke="#FFFFFF" stroke-linecap="square" stroke-miterlimit="8" fill="none" fill-rule="evenodd"/></g></svg>