<svg width="519" height="80" xmlns="http://www.w3.org/2000/svg" xmlns:xlink="http://www.w3.org/1999/xlink" overflow="hidden"><defs><clipPath id="clip0"><path d="M162 626 681 626 681 706 162 706Z" fill-rule="evenodd" clip-rule="evenodd"/></clipPath><linearGradient x1="237.869" y1="658.232" x2="237.869" y2="677.432" gradientUnits="userSpaceOnUse" spreadMethod="reflect" id="fill1"><stop offset="0" stop-color="#1A1A1A"/><stop offset="1" stop-color="#1A1A1A"/></linearGradient><linearGradient x1="344.723" y1="658.232" x2="344.723" y2="677.432" gradientUnits="userSpaceOnUse" spreadMethod="reflect" id="fill2"><stop offset="0" stop-color="#1A1A1A"/><stop offset="1" stop-color="#1A1A1A"/></linearGradient><linearGradient x1="452.672" y1="658.232" x2="452.672" y2="677.432" gradientUnits="userSpaceOnUse" spreadMethod="reflect" id="fill3"><stop offset="0" stop-color="#1A1A1A"/><stop offset="1" stop-color="#1A1A1A"/></linearGradient><linearGradient x1="582.181" y1="658.232" x2="582.181" y2="677.432" gradientUnits="userSpaceOnUse" spreadMethod="reflect" id="fill4"><stop offset="0" stop-color="#1A1A1A"/><stop offset="1" stop-color="#1A1A1A"/></linearGradient></defs><g clip-path="url(#clip0)" transform="translate(-162 -626)"><rect x="162" y="626" width="519" height="79" fill="#F2F2F2"/><path d="M236.007 664.887 236.007 668.379 236.999 668.379C238.343 668.379 239.015 667.79 239.015 666.613 239.015 665.462 238.343 664.887 236.999 664.887ZM243.351 662.949 245.882 662.949 245.882 669.449C245.882 671.262 246.59 672.168 248.007 672.168 249.398 672.168 250.093 671.293 250.093 669.543L250.093 662.949 252.616 662.949 252.616 669.301C252.616 672.665 251.049 674.348 247.913 674.348 244.872 674.348 243.351 672.705 243.351 669.418ZM233.484 662.949 237.437 662.949C240.26 662.949 241.671 664.139 241.671 666.52 241.671 667.645 241.266 668.555 240.456 669.25 239.646 669.945 238.564 670.293 237.21 670.293L236.007 670.293 236.007 674.152 233.484 674.152ZM228.749 662.762C229.843 662.762 230.765 662.9 231.515 663.176L231.515 665.606C230.765 665.158 229.911 664.934 228.952 664.934 227.9 664.934 227.051 665.264 226.405 665.926 225.76 666.587 225.437 667.483 225.437 668.613 225.437 669.697 225.741 670.56 226.351 671.203 226.96 671.846 227.78 672.168 228.812 672.168 229.796 672.168 230.697 671.928 231.515 671.449L231.515 673.754C230.697 674.15 229.629 674.348 228.312 674.348 226.593 674.348 225.241 673.843 224.257 672.832 223.273 671.822 222.78 670.475 222.78 668.793 222.78 667.001 223.334 665.548 224.441 664.434 225.547 663.319 226.984 662.762 228.749 662.762Z" fill="url(#fill1)" fill-rule="evenodd"/><text fill="#000000" fill-opacity="0" font-family="Arial,Arial_MSFontService,sans-serif" font-size="11.5859" x="222.78" y="672.899">CPU</text><path d="M343.194 664.887 343.194 668.379 344.186 668.379C345.53 668.379 346.202 667.79 346.202 666.613 346.202 665.462 345.53 664.887 344.186 664.887ZM350.538 662.949 353.069 662.949 353.069 669.449C353.069 671.262 353.777 672.168 355.194 672.168 356.585 672.168 357.28 671.293 357.28 669.543L357.28 662.949 359.803 662.949 359.803 669.301C359.803 672.665 358.236 674.348 355.1 674.348 352.059 674.348 350.538 672.705 350.538 669.418ZM340.67 662.949 344.624 662.949C347.447 662.949 348.858 664.139 348.858 666.52 348.858 667.645 348.453 668.555 347.643 669.25 346.833 669.945 345.751 670.293 344.397 670.293L343.194 670.293 343.194 674.152 340.67 674.152ZM335.202 662.762C336.389 662.762 337.436 662.926 338.342 663.254L338.342 665.621C337.478 665.121 336.42 664.871 335.17 664.871 334.124 664.871 333.271 665.211 332.612 665.891 331.953 666.57 331.624 667.478 331.624 668.613 331.624 669.764 331.919 670.655 332.51 671.285 333.101 671.915 333.9 672.231 334.905 672.231 335.509 672.231 335.988 672.145 336.342 671.973L336.342 669.785 334.1 669.785 334.1 667.77 338.866 667.77 338.866 673.402C337.772 674.033 336.413 674.348 334.788 674.348 332.986 674.348 331.565 673.849 330.526 672.852 329.487 671.854 328.967 670.481 328.967 668.731 328.967 666.97 329.535 665.535 330.67 664.426 331.806 663.316 333.316 662.762 335.202 662.762Z" fill="url(#fill2)" fill-rule="evenodd"/><text fill="#000000" fill-opacity="0" font-family="Arial,Arial_MSFontService,sans-serif" font-size="11.5859" x="328.967" y="672.899">GPU</text><path d="M467.77 664.949C467.744 665.277 467.678 665.603 467.574 665.926L466.356 669.723 469.223 669.723 468.02 665.957C467.931 665.676 467.869 665.34 467.832 664.949ZM444.02 664.887 444.02 668.379 445.012 668.379C446.356 668.379 447.027 667.79 447.027 666.613 447.027 665.462 446.356 664.887 445.012 664.887ZM466.371 662.949 469.363 662.949 473.348 674.152 470.598 674.152 469.801 671.66 465.816 671.66 465.027 674.152 462.293 674.152ZM441.496 662.949 445.449 662.949C448.272 662.949 449.684 664.139 449.684 666.52 449.684 667.645 449.279 668.555 448.469 669.25 447.659 669.945 446.577 670.293 445.223 670.293L444.02 670.293 444.02 674.152 441.496 674.152ZM433.496 662.949 439.973 662.949 439.973 665.004 436.02 665.004 436.02 667.754 439.652 667.754 439.652 669.801 436.02 669.801 436.02 674.152 433.496 674.152ZM457.027 662.762C458.215 662.762 459.262 662.926 460.168 663.254L460.168 665.621C459.303 665.121 458.246 664.871 456.996 664.871 455.949 664.871 455.096 665.211 454.438 665.891 453.779 666.57 453.449 667.478 453.449 668.613 453.449 669.764 453.745 670.655 454.336 671.285 454.927 671.915 455.725 672.231 456.731 672.231 457.335 672.231 457.814 672.145 458.168 671.973L458.168 669.785 455.926 669.785 455.926 667.77 460.691 667.77 460.691 673.402C459.598 674.033 458.238 674.348 456.613 674.348 454.811 674.348 453.391 673.849 452.352 672.852 451.313 671.854 450.793 670.481 450.793 668.731 450.793 666.97 451.361 665.535 452.496 664.426 453.632 663.316 455.142 662.762 457.027 662.762Z" fill="url(#fill3)" fill-rule="evenodd"/><text fill="#000000" fill-opacity="0" font-family="Arial,Arial_MSFontService,sans-serif" font-size="11.5859" x="433.496" y="672.899">FPGA</text><path d="M598.556 670.363 597.103 670.551C596.301 670.655 595.9 671.017 595.9 671.637 595.9 671.918 595.997 672.148 596.193 672.328 596.388 672.508 596.652 672.598 596.986 672.598 597.449 672.598 597.827 672.438 598.118 672.117 598.41 671.797 598.556 671.392 598.556 670.902ZM586.986 669.34 586.986 672.293 588.353 672.293C588.936 672.293 589.393 672.158 589.724 671.887 590.055 671.616 590.22 671.246 590.22 670.777 590.22 670.33 590.057 669.978 589.732 669.723 589.406 669.468 588.952 669.34 588.368 669.34ZM615.993 667.848C615.446 667.848 615.019 668.063 614.712 668.492 614.405 668.922 614.251 669.512 614.251 670.262 614.251 670.965 614.4 671.507 614.696 671.887 614.993 672.267 615.405 672.457 615.931 672.457 616.431 672.457 616.838 672.257 617.154 671.856 617.469 671.455 617.626 670.923 617.626 670.262L617.626 669.66C617.626 669.139 617.475 668.707 617.173 668.363 616.871 668.02 616.478 667.848 615.993 667.848ZM579.22 666.152 581.689 666.152 581.689 674.152 579.22 674.152ZM565.22 666.152 567.689 666.152 567.689 674.152 565.22 674.152ZM608.29 665.957C610.061 665.957 610.946 667.056 610.946 669.254L610.946 674.152 608.486 674.152 608.486 669.707C608.486 668.468 608.043 667.848 607.157 667.848 606.73 667.848 606.379 668.012 606.103 668.34 605.827 668.668 605.689 669.085 605.689 669.59L605.689 674.152 603.22 674.152 603.22 666.152 605.689 666.152 605.689 667.418 605.72 667.418C606.308 666.444 607.165 665.957 608.29 665.957ZM597.454 665.957C599.736 665.957 600.876 667.095 600.876 669.371L600.876 674.152 598.54 674.152 598.54 673.004 598.509 673.004C597.973 673.9 597.178 674.348 596.126 674.348 595.35 674.348 594.739 674.128 594.294 673.688 593.849 673.247 593.626 672.66 593.626 671.926 593.626 670.374 594.545 669.478 596.384 669.238L598.556 668.949C598.556 668.074 598.082 667.637 597.134 667.637 596.181 667.637 595.275 667.921 594.415 668.488L594.415 666.629C594.759 666.452 595.229 666.296 595.825 666.16 596.422 666.025 596.965 665.957 597.454 665.957ZM574.29 665.957C576.061 665.957 576.946 667.056 576.946 669.254L576.946 674.152 574.486 674.152 574.486 669.707C574.486 668.468 574.043 667.848 573.157 667.848 572.73 667.848 572.379 668.012 572.103 668.34 571.827 668.668 571.689 669.085 571.689 669.59L571.689 674.152 569.22 674.152 569.22 666.152 571.689 666.152 571.689 667.418 571.72 667.418C572.308 666.444 573.165 665.957 574.29 665.957ZM554.29 665.957C556.061 665.957 556.946 667.056 556.946 669.254L556.946 674.152 554.486 674.152 554.486 669.707C554.486 668.468 554.043 667.848 553.157 667.848 552.73 667.848 552.379 668.012 552.103 668.34 551.827 668.668 551.689 669.085 551.689 669.59L551.689 674.152 549.22 674.152 549.22 666.152 551.689 666.152 551.689 667.418 551.72 667.418C552.308 666.444 553.165 665.957 554.29 665.957ZM586.986 664.809 586.986 667.465 588.095 667.465C588.616 667.465 589.026 667.339 589.325 667.086 589.625 666.833 589.775 666.486 589.775 666.043 589.775 665.22 589.16 664.809 587.931 664.809ZM584.462 662.949 588.54 662.949C589.79 662.949 590.751 663.178 591.423 663.637 592.095 664.095 592.431 664.741 592.431 665.574 592.431 666.178 592.226 666.707 591.818 667.16 591.409 667.613 590.887 667.928 590.251 668.106L590.251 668.137C591.048 668.236 591.685 668.53 592.161 669.02 592.638 669.509 592.876 670.106 592.876 670.809 592.876 671.835 592.509 672.648 591.775 673.25 591.04 673.852 590.038 674.152 588.767 674.152L584.462 674.152ZM544.462 662.949 546.986 662.949 546.986 674.152 544.462 674.152ZM580.47 662.348C580.892 662.348 581.234 662.465 581.497 662.699 581.76 662.934 581.892 663.236 581.892 663.606 581.892 663.981 581.76 664.288 581.497 664.527 581.234 664.767 580.892 664.887 580.47 664.887 580.053 664.887 579.712 664.763 579.446 664.516 579.181 664.268 579.048 663.965 579.048 663.606 579.048 663.236 579.181 662.934 579.446 662.699 579.712 662.465 580.053 662.348 580.47 662.348ZM566.47 662.348C566.892 662.348 567.234 662.465 567.497 662.699 567.76 662.934 567.892 663.236 567.892 663.606 567.892 663.981 567.76 664.288 567.497 664.527 567.234 664.767 566.892 664.887 566.47 664.887 566.053 664.887 565.712 664.763 565.446 664.516 565.181 664.268 565.048 663.965 565.048 663.606 565.048 663.236 565.181 662.934 565.446 662.699 565.712 662.465 566.053 662.348 566.47 662.348ZM617.579 662.309 620.048 662.309 620.048 674.152 617.579 674.152 617.579 673.051 617.548 673.051C616.986 673.915 616.16 674.348 615.071 674.348 614.071 674.348 613.267 673.995 612.657 673.289 612.048 672.583 611.743 671.598 611.743 670.332 611.743 669.009 612.079 667.949 612.751 667.152 613.423 666.356 614.303 665.957 615.392 665.957 616.423 665.957 617.142 666.327 617.548 667.066L617.579 667.066ZM563.189 662.121C563.689 662.121 564.105 662.173 564.439 662.277L564.439 664.199C564.121 664.074 563.816 664.012 563.525 664.012 562.733 664.012 562.337 664.441 562.337 665.301L562.337 666.152 564.165 666.152 564.165 667.973 562.337 667.973 562.337 674.152 559.876 674.152 559.876 667.973 558.532 667.973 558.532 666.152 559.876 666.152 559.876 665.16C559.876 664.249 560.173 663.514 560.767 662.957 561.361 662.4 562.168 662.121 563.189 662.121Z" fill="url(#fill4)" fill-rule="evenodd"/><text fill="#000000" fill-opacity="0" font-family="Arial,Arial_MSFontService,sans-serif" font-size="12.2266" x="544.462" y="672.819">InfiniBand</text></g></svg>