<svg width="519" height="80" xmlns="http://www.w3.org/2000/svg" xmlns:xlink="http://www.w3.org/1999/xlink" overflow="hidden"><defs><clipPath id="clip0"><path d="M162-1 681-1 681 79 162 79Z" fill-rule="evenodd" clip-rule="evenodd"/></clipPath></defs><g clip-path="url(#clip0)" transform="translate(-162 1)"><rect x="162" y="0" width="519" height="78" fill="#F2F2F2"/><text fill="#0563C1" font-family="Segoe UI,Segoe UI_MSFontService,sans-serif" font-weight="700" font-size="16" transform="translate(330.219 43)">OpenPAI Marketplace</text><path d="M330.219 45.9564 384.553 45.9564 438.886 45.9564 493.219 45.9564 493.219 46.9564 438.886 46.9564 384.553 46.9564 330.219 46.9564Z" fill="#0563C1" fill-rule="evenodd"/><path d="M283.5 38.6137 292.5 33.5001 301.5 38.6137 301.5 48.3864 292.5 53.5001 283.5 48.3864 283.5 38.6137Z" stroke="#0078D4" stroke-width="1.33333" stroke-miterlimit="8" fill="none" fill-rule="evenodd"/><path d="M301.5 38.5001 292.5 43.5001 283.5 38.5001" stroke="#0078D4" stroke-width="1.33333" stroke-miterlimit="8" fill="none" fill-rule="evenodd"/><path d="M292.5 42.5001 292.5 53.5001" stroke="#0078D4" stroke-width="1.33333" stroke-miterlimit="8" fill="none" fill-rule="evenodd"/><path d="M261.5 38.6137 270 33.5001 278.5 38.6137 278.5 48.3864 270 53.5001 261.5 48.3864 261.5 38.6137Z" stroke="#0078D4" stroke-width="1.33333" stroke-miterlimit="8" fill="none" fill-rule="evenodd"/><path d="M278.5 38.5001 270 43.5001 261.5 38.5001" stroke="#0078D4" stroke-width="1.33333" stroke-miterlimit="8" fill="none" fill-rule="evenodd"/><path d="M269.5 42.5001 269.5 53.5001" stroke="#0078D4" stroke-width="1.33333" stroke-miterlimit="8" fill="none" fill-rule="evenodd"/><path d="M290.5 51.745 281.175 57.5001 271.5 51.5001" stroke="#0078D4" stroke-width="1.33333" stroke-miterlimit="8" fill="none" fill-rule="evenodd"/><path d="M272.5 16.6137 281 11.5001 289.5 16.6137 289.5 26.6137 281 31.5001 272.5 26.6137 272.5 16.6137Z" stroke="#0078D4" stroke-width="1.33333" stroke-miterlimit="8" fill="none" fill-rule="evenodd"/><path d="M289.5 16.5001 281 21.5001 272.5 16.5001" stroke="#0078D4" stroke-width="1.33333" stroke-miterlimit="8" fill="none" fill-rule="evenodd"/><path d="M281.5 21.5001 281.5 31.5001" stroke="#0078D4" stroke-width="1.33333" stroke-miterlimit="8" fill="none" fill-rule="evenodd"/><path d="M289.5 20.5001 299.5 25.7199 299.5 36.5001" stroke="#0078D4" stroke-width="1.33333" stroke-miterlimit="8" fill="none" fill-rule="evenodd"/><path d="M263.5 36.5001 263.5 25.7199 272.5 20.5001" stroke="#0078D4" stroke-width="1.33333" stroke-miterlimit="8" fill="none" fill-rule="evenodd"/></g></svg>