<?xml version="1.0" encoding="UTF-8"?>
<svg width="16px" height="16px" viewBox="0 0 16 16" version="1.1" xmlns="http://www.w3.org/2000/svg" xmlns:xlink="http://www.w3.org/1999/xlink">
    <!-- Generator: Sketch 50.2 (55047) - http://www.bohemiancoding.com/sketch -->
    <title>compute_target_light</title>
    <desc>Created with Sketch.</desc>
    <defs></defs>
    <g id="compute_target_light" stroke="none" stroke-width="1" fill="none" fill-rule="evenodd">
        <g id="Group" transform="translate(1.000000, 1.000000)">
            <path d="M8.57809594,10 C8.23128452,10 8.23128452,10 8.23128452,10 C4.97920582,10 4.97920582,10 4.97920582,10 C4.7689462,10 4.7689462,10 4.7689462,10 C5.25785509,11.7683942 4.6323944,12.0778729 2,12.0778729 C2,13 2,13 2,13 C5.39417671,13 5.39417671,13 5.39417671,13 C7.81631095,13 7.81631095,13 7.81631095,13 C11,13 11,13 11,13 C11,12.0778729 11,12.0778729 11,12.0778729 C8.373382,12.0778729 8.09473005,11.7683942 8.57809594,10 Z" id="Fill-1" fill="#000000"></path>
            <path d="M0.333333333,0 C0.131145908,0.142481501 0,0.421197508 0,0.626127444 C0,9.23717282 0,9.23717282 0,9.23717282 C0,9.65281983 0.333333333,10 0.732223054,10 C1,10 1,10 1,10 C0.732223054,10 0.732223054,10 0.732223054,10 C0.333333333,10 0,9.65281983 0,9.23717282 C0,0.626127444 0,0.626127444 0,0.626127444 C0,0.421197508 0.131145908,0.142481501 0.333333333,0 Z" id="Fill-4" fill="#FFFFFF"></path>
            <polygon id="Fill-8" fill="#808080" points="2 13 11 13 11 12 2 12"></polygon>
            <path d="M13.1552004,0 C0.770103975,0 0.770103975,0 0.770103975,0 C0.350578042,0 0,0.34250613 0,0.752326538 C0,9.24744265 0,9.24744265 0,9.24744265 C0,9.65749387 0.350578042,10 0.770103975,10 C13.1552004,10 13.1552004,10 13.1552004,10 C13.5746809,10 14,9.65749387 14,9.24744265 C14,0.752326538 14,0.752326538 14,0.752326538 C14,0.34250613 13.5746809,0 13.1552004,0 Z" id="Fill-3" fill="#595959"></path>
            <path d="M0.761018558,0 C0.624726631,0 0.414599505,0.0673142789 0.346442045,0.134628558 C0.13630337,0.275191851 0,0.550155545 0,0.752326538 C0,9.24744265 0,9.24744265 0,9.24744265 C0,9.65749387 0.346442045,10 0.761018558,10 C1.03932614,10 1.03932614,10 1.03932614,10 C2.2830784,8.97247896 2.2830784,8.97247896 2.2830784,8.97247896 C1.03932614,8.97247896 1.03932614,8.97247896 1.03932614,8.97247896 C1.03932614,1.02751839 1.03932614,1.02751839 1.03932614,1.02751839 C11.7561806,1.02751839 11.7561806,1.02751839 11.7561806,1.02751839 C13,0 13,0 13,0 C0.761018558,0 0.761018558,0 0.761018558,0 Z" id="Fill-5" fill="#808080"></path>
            <polygon id="Fill-6" fill="#59B4D9" points="1 9 13 9 13 1 1 1"></polygon>
            <polygon id="Fill-7" fill="#59B4D9" points="1 9 1 9 1 1 12 1 12 1 1 1"></polygon>
            <path d="M6.49722079,5 C6.49722079,4.93126447 6.49722079,4.93126447 6.49722079,4.93126447 C4,3.53703927 4,3.53703927 4,3.53703927 C4,3.53703927 4,3.53703927 4,3.46296073 C4,3.46296073 4,3.3942252 4,3.3942252 C6.42886911,2 6.42886911,2 6.42886911,2 C6.49722079,2 6.49722079,2 6.49722079,2 C9,3.3942252 9,3.3942252 9,3.3942252 C9,3.46296073 9,3.46296073 9,3.46296073 C9,3.53703927 9,3.53703927 9,3.53703927 C6.56556978,4.93126447 6.56556978,4.93126447 6.56556978,4.93126447 C6.49722079,5 6.49722079,5 6.49722079,5 Z" id="Fill-10" fill="#FFFFFF"></path>
            <path d="M4.10674757,4 C4,4 4,4 4,4 C4,4 4,4.06244005 4,4.06244005 C4,6.66652476 4,6.66652476 4,6.66652476 C4,6.66652476 4,6.66652476 4,6.73425818 C5.94671828,8 5.94671828,8 5.94671828,8 C5.94671828,8 5.94671828,8 5.94671828,8 C6,8 6,8 6,8 C6,8 6,7.93734585 6,7.93734585 C6,5.33326361 6,5.33326361 6,5.33326361 C6,5.33326361 6,5.33326361 6,5.27082109 C4.10674757,4 4.10674757,4 4.10674757,4 Z" id="Fill-11" fill="#CEE9F4"></path>
            <path d="M9,4 C8.9465363,4 8.9465363,4 8.9465363,4 C7.05328376,5.33326361 7.05328376,5.33326361 7.05328376,5.33326361 C7,5.33326361 7,5.33326361 7,5.3959153 C7,7.93734585 7,7.93734585 7,7.93734585 C7,7.93734585 7,8 7.05328376,8 C7.05328376,8 7.05328376,8 7.05328376,8 C7.10656543,8 7.10656543,8 7.10656543,8 C9,6.73425818 9,6.73425818 9,6.73425818 C9,6.66652476 9,6.66652476 9,6.66652476 C9,4.06244005 9,4.06244005 9,4.06244005 C9,4.06244005 9,4.06244005 9,4 Z" id="Fill-12" fill="#9BD2E8"></path>
            <circle id="Oval" fill="#B8D432" cx="6.5" cy="0.5" r="1"></circle>
        </g>
    </g>
</svg>