<?xml version="1.0" encoding="utf-8"?>
<!-- Generator: Adobe Illustrator 19.1.0, SVG Export Plug-In . SVG Version: 6.00 Build 0)  -->
<svg version="1.1" id="Layer_1" xmlns="http://www.w3.org/2000/svg" xmlns:xlink="http://www.w3.org/1999/xlink" x="0px" y="0px"
	 viewBox="0 0 16 16" style="enable-background:new 0 0 16 16;" xml:space="preserve">
<style type="text/css">
	.st0{fill:#0078D7;}
	.st1{fill:#FFFFFF;enable-background:new    ;}
</style>
<polygon class="st0" points="13.8,2.7 12.4,1.3 11.8,0.7 11.8,0.7 1.6,0.7 1.6,15.3 14.4,15.3 14.4,3.3 14.4,3.3 "/>
<polygon class="st1" points="11.8,1.3 2.2,1.3 2.2,14.7 13.8,14.7 13.8,3.3 13.1,3.3 11.8,3.3 "/>
<path class="st0" d="M11.9,8.7c-0.4,0-0.6,0.2-0.6,0.7v0.8c0,0.5-0.1,0.8-0.3,1c-0.2,0.2-0.7,0.3-1.2,0.3v-0.6
	c0.2,0,0.4-0.1,0.4-0.1c0.1-0.1,0.1-0.3,0.1-0.5V9.5c0-0.6,0.2-1,0.6-1.1l0,0c-0.4-0.1-0.6-0.5-0.6-1.2V6.4c0-0.4-0.2-0.7-0.6-0.7V5
	c0.1,0,0.2,0,0.3,0c0.4,0,0.7,0.1,0.9,0.3c0.2,0.2,0.3,0.6,0.3,1.1v0.8c0,0.4,0.2,0.7,0.6,0.7L11.9,8.7L11.9,8.7z M6.4,11.5
	c-0.5,0-1-0.1-1.2-0.3c-0.2-0.2-0.3-0.5-0.3-1V9.3C4.8,8.9,4.6,8.6,4.3,8.6V7.9c0.4,0,0.5-0.2,0.5-0.7V6.5c0-0.5,0.1-0.8,0.4-1
	C5.4,5.1,5.8,5,6.3,5v0.7C5.9,5.8,5.7,6,5.7,6.5v0.7c0,0.6-0.2,1-0.6,1.1l0,0c0.4,0.1,0.6,0.5,0.6,1.1v0.7c0,0.2,0.1,0.4,0.1,0.5
	c0.1,0.2,0.2,0.2,0.4,0.2v0.6H6.4z"/>
</svg>
