<?xml version="1.0" encoding="UTF-8"?>
<svg width="16px" height="16px" viewBox="0 0 16 16" version="1.1" xmlns="http://www.w3.org/2000/svg" xmlns:xlink="http://www.w3.org/1999/xlink">
    <!-- Generator: Sketch 50.2 (55047) - http://www.bohemiancoding.com/sketch -->
    <title>connected_light</title>
    <desc>Created with Sketch.</desc>
    <defs></defs>
    <g id="connected_light" stroke="none" stroke-width="1" fill="none" fill-rule="evenodd">
        <g id="ConnectPlugged" fill="#595959" fill-rule="nonzero">
            <path d="M15.7170005,1.16638244 L13.0206224,3.86151105 C14.0792887,5.34860324 13.9114368,7.38235567 12.6232877,8.67575793 L9.08975793,12.2080382 C7.79997703,13.5047832 5.75969545,13.6736597 4.27426157,12.6066224 L1.58038244,15.301751 L0.697,14.4183685 L3.39087913,11.7244894 C2.32169142,10.2396517 2.49069515,8.19783231 3.78946328,6.90899305 L7.32299305,3.3742138 C8.58996588,2.10849045 10.6915914,1.98354244 12.134741,2.98062757 L14.833618,0.283 L15.7170005,1.16638244 Z M8.20637549,11.3259053 L9.53207389,10.0002069 L5.99854413,6.46667709 L4.67284572,7.79237549 C4.20054224,8.26467897 3.94065038,8.89191799 3.94065038,9.55914037 C3.93885479,10.2222359 4.20252624,10.858467 4.67284572,11.3259053 C5.61745269,12.2705122 7.26176852,12.2705122 8.20637549,11.3259053 Z M11.7399053,7.79237549 C12.7144997,6.817781 12.7144997,5.23219073 11.7399053,4.25759624 C10.7952983,3.31423876 9.15098246,3.31423876 8.20637549,4.25759624 L6.88067709,5.58329465 L10.4142069,9.11807389 L11.7399053,7.79237549 Z" id="Combined-Shape"></path>
        </g>
    </g>
</svg>