<?xml version="1.0" encoding="UTF-8"?>
<svg width="16px" height="16px" viewBox="0 0 16 16" version="1.1" xmlns="http://www.w3.org/2000/svg" xmlns:xlink="http://www.w3.org/1999/xlink">
    <!-- Generator: Sketch 51.2 (57519) - http://www.bohemiancoding.com/sketch -->
    <title>deployment</title>
    <desc>Created with Sketch.</desc>
    <defs></defs>
    <g id="deployment" stroke="none" stroke-width="1" fill="none" fill-rule="evenodd">
        <path d="M3.94918131,11.3421048 C3.94835566,11.3421052 3.94829957,11.3421052 3.94736842,11.3421053 C3.94637758,11.3421052 3.94637758,11.3421052 3.94566895,11.3421048 L3.92787887,11.342097 C2.03210001,11.3315203 0.5,9.79138152 0.5,7.89473684 C0.5,5.99080784 2.04343942,4.44736842 3.94736842,4.44736842 C4.05890384,4.44736842 4.16980146,4.45268197 4.27978169,4.46322298 C4.66845114,2.75804521 6.19493951,1.5 8,1.5 C9.80506049,1.5 11.3315489,2.75804521 11.7202183,4.46322298 C11.8301985,4.45268197 11.9410962,4.44736842 12.0526316,4.44736842 C13.9565606,4.44736842 15.5,5.99080784 15.5,7.89473684 C15.5,9.79866585 13.9565606,11.3421053 12.0526316,11.3421053 C12.0454409,11.3421004 12.0454409,11.3421004 12.0403034,11.34208 L3.94918131,11.3421048 Z" id="Combined-Shape" stroke="#FF8C02" fill-rule="nonzero"></path>
        <path d="M8.70710678,4.70710678 L12.2928932,8.29289322 C12.6834175,8.68341751 12.6834175,9.31658249 12.2928932,9.70710678 C12.1053568,9.89464316 11.8510029,10 11.5857864,10 L4.41421356,10 C3.86192881,10 3.41421356,9.55228475 3.41421356,9 C3.41421356,8.73478351 3.5195704,8.4804296 3.70710678,8.29289322 L7.29289322,4.70710678 C7.68341751,4.31658249 8.31658249,4.31658249 8.70710678,4.70710678 Z" id="Triangle" fill="#6B849C" fill-rule="nonzero"></path>
        <rect id="Rectangle-5" fill="#6B849C" fill-rule="nonzero" x="6" y="9" width="4" height="7" rx="1"></rect>
    </g>
</svg>