<?xml version="1.0" encoding="utf-8"?>
<!-- Generator: Adobe Illustrator 18.1.1, SVG Export Plug-In . SVG Version: 6.00 Build 0)  -->
<!DOCTYPE svg PUBLIC "-//W3C//DTD SVG 1.1//EN" "http://www.w3.org/Graphics/SVG/1.1/DTD/svg11.dtd">
<svg version="1.1" xmlns="http://www.w3.org/2000/svg" xmlns:xlink="http://www.w3.org/1999/xlink" x="0px" y="0px" width="16px"
	 height="16px" viewBox="0 0 16 16" style="enable-background:new 0 0 16 16;" xml:space="preserve">
<style type="text/css">
	.icon-canvas-transparent{opacity:0;fill:#F6F6F6;}
	.icon-vs-out{fill:#F6F6F6;}
	.icon-vs-bg{fill:#424242;}
</style>
<g id="canvas">
	<path class="icon-canvas-transparent" d="M16,16H0V0h16V16z"/>
</g>
<g id="outline">
	<path class="icon-vs-out" d="M16,7.5c0,1.378-1.121,2.5-2.5,2.5S11,8.878,11,7.5S12.121,5,13.5,5S16,6.122,16,7.5z
		 M3.5,5C2.122,5,1,6.122,1,7.5S2.122,10,3.5,10S6,8.878,6,7.5S4.878,5,3.5,5z M8.5,5C7.122,5,6,6.122,6,7.5S7.122,10,8.5,10
		C9.879,10,11,8.878,11,7.5S9.879,5,8.5,5z"/>
</g>
<g id="iconBg">
	<path class="icon-vs-bg" d="M5,7.5C5,8.328,4.329,9,3.5,9S2,8.328,2,7.5C2,6.671,2.671,6,3.5,6S5,6.671,5,7.5z M8.5,6
		C7.671,6,7,6.671,7,7.5C7,8.328,7.671,9,8.5,9C9.328,9,10,8.328,10,7.5C10,6.671,9.328,6,8.5,6z M13.5,6C12.672,6,12,6.671,12,7.5
		C12,8.328,12.672,9,13.5,9S15,8.328,15,7.5C15,6.671,14.328,6,13.5,6z"/>
</g>
</svg>
