<svg xmlns="http://www.w3.org/2000/svg" viewBox="0 0 16 16"><style>.icon-canvas-transparent{opacity:0;fill:#f6f6f6}.icon-vs-out{fill:#f6f6f6}.icon-vs-red{fill:#e51400}.icon-white{fill:#fff}</style><path class="icon-canvas-transparent" d="M16 16H0V0h16v16z" id="canvas"/><path class="icon-vs-out" d="M16 8A8 8 0 1 1 0 8a8 8 0 0 1 16 0z" id="outline"/><path class="icon-vs-red" d="M8 1a7 7 0 1 0 .001 14.001A7 7 0 0 0 8 1zm4.414 10L11 12.414l-3-3-3 3L3.586 11l3-3-3-3L5 3.586l3 3 3-3L12.414 5l-3 3 3 3z" id="iconBg"/><g id="iconFg"><path class="icon-white" d="M9.414 8l3 3L11 12.414l-3-3-3 3L3.586 11l3-3-3-3L5 3.586l3 3 3-3L12.414 5l-3 3z"/></g></svg>