<?xml version="1.0" encoding="utf-8"?>
<!-- Generator: Adobe Illustrator 18.1.1, SVG Export Plug-In . SVG Version: 6.00 Build 0)  -->
<!DOCTYPE svg PUBLIC "-//W3C//DTD SVG 1.1//EN" "http://www.w3.org/Graphics/SVG/1.1/DTD/svg11.dtd">
<svg version="1.1" xmlns="http://www.w3.org/2000/svg" xmlns:xlink="http://www.w3.org/1999/xlink" x="0px" y="0px" width="16px"
	 height="16px" viewBox="0 0 16 16" style="enable-background:new 0 0 16 16;" xml:space="preserve">
<style type="text/css">
	.icon-canvas-transparent{opacity:0;fill:#F6F6F6;}
	.icon-vs-out{fill:#F6F6F6;}
	.icon-vs-bg{fill:#424242;}
	.icon-vs-fg{fill:#F0EFF1;}
</style>
<g id="canvas">
	<path class="icon-canvas-transparent" d="M16,16H0V0h16V16z"/>
</g>
<g id="outline">
	<path class="icon-vs-out" d="M15.998,7.5c0,4.136-3.364,7.5-7.5,7.5c-0.167,0-0.332-0.013-0.495-0.027l-0.913-0.08
		L7,14H0V7h1.112L0.077,3.312L1.638,0h0.846L3.16,1.883C4.425,0.678,6.257,0,8.498,0C12.634,0,15.998,3.364,15.998,7.5z"/>
</g>
<g id="iconBg">
	<path class="icon-vs-bg" d="M12,7v1H8V3h1v4H12z M7,8H1v1h6V8z M7,10H1v1h6V10z M7,12H1v1h6V12z M8.498,1
		C5.91,1,3.827,2.028,2.852,3.98L1.993,1.591L1.141,3.401l1.072,3.822l3.451-1.691l0.853-1.809L4.025,4.761L3.774,4.865
		c0.795-1.683,2.551-2.646,4.679-2.646c2.895,0,5.248,2.354,5.248,5.25c0,2.896-2.353,5.251-5.248,5.251
		c-0.154,0-0.303-0.023-0.453-0.039v1.288C8.165,13.983,8.329,14,8.498,14c3.59,0,6.5-2.91,6.5-6.5C14.998,3.91,12.088,1,8.498,1z"
		/>
</g>
<g id="iconFg">
	<path class="icon-vs-fg" d="M13.671,7.456c0,2.91-2.359,5.269-5.269,5.269c-0.137,0-0.269-0.021-0.402-0.034V8h4V7H9V3
		H8v4H3.17c0.012-0.088,0.024-0.176,0.036-0.263l2.458-1.204l0.853-1.809L4.025,4.761L3.86,4.83
		c0.912-1.573,2.594-2.642,4.542-2.642C11.312,2.187,13.671,4.546,13.671,7.456z"/>
</g>
</svg>
