<svg xmlns="http://www.w3.org/2000/svg" viewBox="0 0 16 16"><style>.st0{opacity:0}.st0,.st1{fill:#f6f6f6}.st2{fill:none}.st3{fill:#424242}.st4{fill:#00539c}.st5{fill:#f0eff1}</style><g id="outline"><path class="st0" d="M0 0h16v16H0z"/><path class="st1" d="M9.994 6.42L12 4.414V0h-.414L10 1.586V0H6v1.586L4.414 0H4v4.414L6.006 6.42A5.004 5.004 0 0 0 3 11c0 2.757 2.243 5 5 5s5-2.243 5-5a5.004 5.004 0 0 0-3.006-4.58z"/></g><g id="icon_x5F_bg"><path class="st2" d="M8 8a3 3 0 1 0 0 6 3 3 0 0 0 0-6zm2 4H7V9h1v2h2v1z"/><path class="st3" d="M8 7a4 4 0 1 0 0 8 4 4 0 0 0 0-8zm0 7a3 3 0 1 1 0-6 3 3 0 0 1 0 6z"/><path class="st3" d="M8 9H7v3h3v-1H8z"/></g><path class="st4" d="M11 4L8 7 5 4V2l2 2V1h2v3l2-2v2z" id="color_x5F_importance"/><path class="st5" d="M8 8a3 3 0 1 0 0 6 3 3 0 0 0 0-6zm2 4H7V9h1v2h2v1z" id="icon_x5F_fg"/></svg>