<svg xmlns="http://www.w3.org/2000/svg" width="16" height="16"><style type="text/css">.icon-canvas-transparent{opacity:0;fill:#F6F6F6;} .icon-vs-out{fill:#F6F6F6;} .icon-vs-bg{fill:#424242;} .icon-vs-fg{fill:#F0EFF1;}</style><path class="icon-canvas-transparent" d="M16 16h-16v-16h16v16z" id="canvas"/><path class="icon-vs-out" d="M15 9h-3v3h-3v3h-8v-8h3v-3h3v-3h8v8z" id="outline"/><path class="icon-vs-bg" d="M8 2v3h-3v3h-3v6h6v-3h3v-3h3v-6h-6zm-1 11h-4v-4h4v4zm3-3h-2v-2h-2v-2h4v4zm3-3h-2v-2h-2v-2h4v4z" id="iconBg"/><path class="icon-vs-fg" d="M13 3v4h-2v-2h-2v-2h4zm-7 3v2h2v2h2v-4h-4zm-3 7h4v-4h-4v4z" id="iconFg"/></svg>