<svg xmlns="http://www.w3.org/2000/svg" viewBox="0 0 16 16"><defs><style>.icon-canvas-transparent,.icon-vs-out{fill:#f6f6f6}.icon-canvas-transparent{opacity:0}.a{fill:#424242}.icon-vs-blue{fill:#1ba1e2}.icon-vs-fg{fill:#f0eff1}</style></defs><title>ProgressBar_16x</title><path class="icon-canvas-transparent" d="M16 16H0V0h16z"/><path class="icon-vs-out" d="M16 5v5a2 2 0 0 1-2 2H2a2 2 0 0 1-2-2V5a2 2 0 0 1 2-2h12a2 2 0 0 1 2 2z"/><path class="a" d="M14 4H2a1 1 0 0 0-1 1v5a1 1 0 0 0 1 1h12a1 1 0 0 0 1-1V5a1 1 0 0 0-1-1zm0 6H2V5h12z"/><path class="a" d="M14 4H2a1 1 0 0 0-1 1v5a1 1 0 0 0 1 1h12a1 1 0 0 0 1-1V5a1 1 0 0 0-1-1zm0 6H2V5h12z"/><path class="icon-vs-blue" d="M3 6h6v3H3z"/><path class="icon-vs-fg" d="M2 5v5h12V5zm7 4H3V6h6z"/></svg>