<svg width="16" height="16" viewBox="0 0 16 16" fill="none" xmlns="http://www.w3.org/2000/svg">
<path d="M13 3.5C13 2.119 10.761 1 8 1C5.239 1 3 2.119 3 3.5C3 3.54 3.02 3.577 3.024 3.617H3V12.489L3.056 12.846C3.336 14.056 5.429 15 8 15C10.571 15 12.664 14.056 12.944 12.846L13 12.489V3.617H12.976C12.98 3.577 13 3.54 13 3.5ZM8 2.032C10.442 2.032 12 2.996 12 3.5C12 4.004 10.442 4.968 8 4.968C5.558 4.968 4 4 4 3.5C4 3 5.558 2.032 8 2.032ZM12 12.49L11.97 12.621C11.855 13.116 10.431 14 8 14C5.569 14 4.145 13.116 4.03 12.621L4 12.49V4.99C5.21092 5.69833 6.59796 6.04855 8 6C9.40243 6.04734 10.7895 5.69572 12 4.986V12.486V12.49Z" fill="white"/>
</svg>