<svg xmlns="http://www.w3.org/2000/svg" xmlns:xlink="http://www.w3.org/1999/xlink" width="70" height="100%" viewBox="5 0 60 60">
  <path id="路径_9350" data-name="路径 9350"
    d="M9.375-3.125H19.434L18.652,0H6.25V-46.875H9.375V-50H12.5v3.125h6.25V-50h3.125v3.125h6.25V-50H31.25v3.125H37.5V-50h3.125v3.125H43.75v15.82a8.061,8.061,0,0,0-1.624.415,7.422,7.422,0,0,0-1.5.757V-43.75H9.375Zm35.742-25a4.992,4.992,0,0,1,1.917.366,4.783,4.783,0,0,1,1.55,1.013,4.706,4.706,0,0,1,1.038,1.538A4.852,4.852,0,0,1,50-23.291a4.9,4.9,0,0,1-.366,1.855,4.739,4.739,0,0,1-1.05,1.587l-17.5,17.5-9.2,2.295,2.295-9.2,17.5-17.48a4.578,4.578,0,0,1,1.587-1.05A5.074,5.074,0,0,1,45.117-28.125Zm1.245,6.079a1.7,1.7,0,0,0,.513-1.245,1.625,1.625,0,0,0-.5-1.233A1.752,1.752,0,0,0,45.117-25a2,2,0,0,0-.659.11,1.462,1.462,0,0,0-.562.354L27-7.642l-.83,3.3,3.3-.83Z"
    transform="translate(4 55)" fill="black" />
</svg>
