<svg width="509" height="724" xmlns="http://www.w3.org/2000/svg" xmlns:xlink="http://www.w3.org/1999/xlink" overflow="hidden">
    <defs>
        <linearGradient x1="408.728" y1="206.27" x2="408.728" y2="225.47" gradientUnits="userSpaceOnUse" spreadMethod="reflect" id="fill1">
            <stop offset="0" stop-color="#1A1A1A"/>
            <stop offset="1" stop-color="#1A1A1A"/>
        </linearGradient>
        <linearGradient x1="411.966" y1="286.591" x2="411.966" y2="305.791" gradientUnits="userSpaceOnUse" spreadMethod="reflect" id="fill2">
            <stop offset="0" stop-color="#1A1A1A"/>
            <stop offset="1" stop-color="#1A1A1A"/>
        </linearGradient>
        <linearGradient x1="419.696" y1="574.571" x2="419.696" y2="593.771" gradientUnits="userSpaceOnUse" spreadMethod="reflect" id="fill3">
            <stop offset="0" stop-color="#1A1A1A"/>
            <stop offset="1" stop-color="#1A1A1A"/>
        </linearGradient>
        <linearGradient x1="419.696" y1="591.851" x2="419.696" y2="611.051" gradientUnits="userSpaceOnUse" spreadMethod="reflect" id="fill4">
            <stop offset="0" stop-color="#1A1A1A"/>
            <stop offset="1" stop-color="#1A1A1A"/>
        </linearGradient>
        <linearGradient x1="237.869" y1="668.799" x2="237.869" y2="687.999" gradientUnits="userSpaceOnUse" spreadMethod="reflect" id="fill5">
            <stop offset="0" stop-color="#1A1A1A"/>
            <stop offset="1" stop-color="#1A1A1A"/>
        </linearGradient>
        <linearGradient x1="344.723" y1="668.799" x2="344.723" y2="687.999" gradientUnits="userSpaceOnUse" spreadMethod="reflect" id="fill6">
            <stop offset="0" stop-color="#1A1A1A"/>
            <stop offset="1" stop-color="#1A1A1A"/>
        </linearGradient>
        <linearGradient x1="452.672" y1="668.799" x2="452.672" y2="687.999" gradientUnits="userSpaceOnUse" spreadMethod="reflect" id="fill7">
            <stop offset="0" stop-color="#1A1A1A"/>
            <stop offset="1" stop-color="#1A1A1A"/>
        </linearGradient>
        <linearGradient x1="582.181" y1="668.799" x2="582.181" y2="687.999" gradientUnits="userSpaceOnUse" spreadMethod="reflect" id="fill8">
            <stop offset="0" stop-color="#1A1A1A"/>
            <stop offset="1" stop-color="#1A1A1A"/>
        </linearGradient>
        <clipPath id="clip0">
            <path d="M162-1 671-1 671 723 162 723Z" fill-rule="evenodd" clip-rule="evenodd"/>
        </clipPath>
    </defs>
    <g clip-path="url(#clip0)" transform="translate(-162 1)">
        <rect x="162" y="270" width="508" height="149" fill="#F2F2F2"/>
        <rect x="0" y="0" width="250" height="51" fill="#F2F2F2" transform="matrix(1 0 0 -1 162 473)"/>
        <rect x="0" y="0" width="258" height="51" fill="#F2F2F2" transform="matrix(1 0 0 -1 412 473)"/>
        <rect x="0" y="0" width="250" height="64" fill="#F2F2F2" transform="matrix(1 0 0 -1 162 534)"/>
        <rect x="0" y="0" width="258" height="64" fill="#F2F2F2" transform="matrix(1 0 0 -1 412 534)"/>
        <rect x="162" y="269" width="508" height="265" fill="#F2F2F2"/>
        <rect x="336" y="93" width="160" height="68" fill="#0078D7"/>
        <a href="https://github.com/microsoft/openpaisdk">
            <text fill="#FFFFFF" font-family="Segoe UI,Segoe UI_MSFontService,sans-serif" font-weight="700" font-size="15" transform="translate(393.255 130)">
                Client SDK
            </text>
        </a>
        <path d="M393.255 132.094 411.505 132.094 429.755 132.094 448.005 132.094 466.255 132.094 466.255 133.094 448.005 133.094 429.755 133.094 411.505 133.094 393.255 133.094Z" fill="#FFFFFF" fill-rule="evenodd"/>
        <rect x="162" y="0" width="508" height="78" fill="#F2F2F2"/>
        <a href="https://github.com/microsoft/openpaimarketplace">
            <text fill="#0563C1" font-family="Segoe UI,Segoe UI_MSFontService,sans-serif" font-weight="700" font-size="16" transform="translate(330.219 43)">
                OpenPAI Marketplace
            </text>
        </a>
        <path d="M330.219 45.9564 384.553 45.9564 438.886 45.9564 493.219 45.9564 493.219 46.9564 438.886 46.9564 384.553 46.9564 330.219 46.9564Z" fill="#0563C1" fill-rule="evenodd"/>
        <path d="M283.5 38.6137 292.5 33.5001 301.5 38.6137 301.5 48.3864 292.5 53.5001 283.5 48.3864 283.5 38.6137Z" stroke="#0078D4" stroke-miterlimit="8" fill="none" fill-rule="evenodd"/>
        <path d="M301.5 38.5001 292.5 43.5001 283.5 38.5001" stroke="#0078D4" stroke-miterlimit="8" fill="none" fill-rule="evenodd"/>
        <path d="M292.5 42.5001 292.5 53.5001" stroke="#0078D4" stroke-miterlimit="8" fill="none" fill-rule="evenodd"/>
        <path d="M261.5 38.6137 270 33.5001 278.5 38.6137 278.5 48.3864 270 53.5001 261.5 48.3864 261.5 38.6137Z" stroke="#0078D4" stroke-miterlimit="8" fill="none" fill-rule="evenodd"/>
        <path d="M278.5 38.5001 270 43.5001 261.5 38.5001" stroke="#0078D4" stroke-miterlimit="8" fill="none" fill-rule="evenodd"/>
        <path d="M269.5 42.5001 269.5 53.5001" stroke="#0078D4" stroke-miterlimit="8" fill="none" fill-rule="evenodd"/>
        <path d="M290.5 51.745 281.175 57.5001 271.5 51.5001" stroke="#0078D4" stroke-miterlimit="8" fill="none" fill-rule="evenodd"/>
        <path d="M272.5 16.6137 281 11.5001 289.5 16.6137 289.5 26.6137 281 31.5001 272.5 26.6137 272.5 16.6137Z" stroke="#0078D4" stroke-miterlimit="8" fill="none" fill-rule="evenodd"/>
        <path d="M289.5 16.5001 281 21.5001 272.5 16.5001" stroke="#0078D4" stroke-miterlimit="8" fill="none" fill-rule="evenodd"/>
        <path d="M281.5 21.5001 281.5 31.5001" stroke="#0078D4" stroke-miterlimit="8" fill="none" fill-rule="evenodd"/>
        <path d="M289.5 20.5001 299.5 25.7199 299.5 36.5001" stroke="#0078D4" stroke-miterlimit="8" fill="none" fill-rule="evenodd"/>
        <path d="M263.5 36.5001 263.5 25.7199 272.5 20.5001" stroke="#0078D4" stroke-miterlimit="8" fill="none" fill-rule="evenodd"/>
        <rect x="162" y="93" width="160" height="68" fill="#0078D7"/>
        <path d="M210.5 138.5 182.5 138.5 182.5 115.5 210.5 115.5 210.5 138.5M182.5 121.25 210.038 121.25M193.699 125.085 186.231 125.085 186.231 134.665 193.699 134.665 193.699 125.085M196.5 125.085 202.097 125.085M196.5 128.915 202.097 128.915M196.5 132.75 200.231 132.75" stroke="#FFFFFF" stroke-linecap="square" stroke-miterlimit="8" fill="none" fill-rule="evenodd"/>
        <text fill="#FFFFFF" font-family="Segoe UI,Segoe UI_MSFontService,sans-serif" font-weight="700" font-size="15" transform="translate(224.055 130)">
            Web Portal
        </text>
        <path d="M378.125 118.263C378.5 118.263 378.5 118.263 378.5 118.263 378.5 137.886 378.5 137.886 378.5 137.886 378.5 140.441 373.352 142.5 366.995 142.5 360.648 142.5 355.5 140.441 355.5 137.886 355.5 118.263 355.5 118.263 355.5 118.263 355.876 118.263 355.876 118.263 355.876 118.263 357.149 120.257 361.646 121.728 366.995 121.728 372.354 121.728 376.842 120.257 378.125 118.263ZM366.995 112.5C360.648 112.5 355.5 114.559 355.5 117.114 355.5 119.66 360.648 121.728 366.995 121.728 373.352 121.728 378.5 119.66 378.5 117.114 378.5 114.559 373.352 112.5 366.995 112.5Z" stroke="#FFFFFF" stroke-linecap="square" stroke-miterlimit="8" fill="none" fill-rule="evenodd"/>
        <rect x="510" y="93" width="160" height="68" fill="#0078D7"/>
        <a href=" https://github.com/microsoft/openpaivscode">
            <text fill="#FFFFFF" font-family="Segoe UI,Segoe UI_MSFontService,sans-serif" font-weight="700" font-size="15" transform="translate(565.078 123)">
                VS Code
            </text>
        </a>
        <path d="M565.078 124.785 580.328 124.785 595.578 124.785 610.828 124.785 626.078 124.785 626.078 125.785 610.828 125.785 595.578 125.785 580.328 125.785 565.078 125.785Z" fill="#FFFFFF" fill-rule="evenodd"/>
        <a href="https://github.com/microsoft/openpaivscode ">
            <text fill="#FFFFFF" font-family="Segoe UI,Segoe UI_MSFontService,sans-serif" font-weight="700" font-size="15" transform="translate(565.078 141)">
                Extension
            </text>
        </a>
        <path d="M565.078 142.785 581.828 142.785 598.578 142.785 615.328 142.785 632.078 142.785 632.078 143.785 615.328 143.785 598.578 143.785 581.828 143.785 565.078 143.785Z" fill="#FFFFFF" fill-rule="evenodd"/>
        <path d="M535.267 118.331C540.922 124.078 540.922 124.078 540.922 124.078 535.267 129.733 535.267 129.733 535.267 129.733M540.922 124.078C527.422 124.078 527.422 124.078 527.422 124.078M538.642 126.358C532.987 132.014 532.987 132.014 532.987 132.014 538.642 137.669 538.642 137.669 538.642 137.669M532.987 132.014C546.487 132.014 546.487 132.014 546.487 132.014M537 114.5C529.52 114.5 523.5 120.612 523.5 128 523.5 135.48 529.52 141.5 537 141.5 544.389 141.5 550.5 135.48 550.5 128 550.5 120.612 544.389 114.5 537 114.5Z" stroke="#FFFFFF" stroke-miterlimit="8" fill="none" fill-rule="evenodd"/>
        <rect x="162" y="176" width="508" height="79" fill="#F2F2F2"/>
        <path d="M408.879 214.19 411.34 214.19 411.34 218.799C411.34 219.93 411.788 220.495 412.683 220.495 413.126 220.495 413.48 220.34 413.746 220.03 414.012 219.72 414.144 219.299 414.144 218.768L414.144 214.19 416.605 214.19 416.605 222.19 414.144 222.19 414.144 220.971 414.105 220.971C413.496 221.914 412.681 222.385 411.66 222.385 409.806 222.385 408.879 221.263 408.879 219.018ZM431.519 212.987C431.493 213.315 431.428 213.641 431.324 213.964L430.105 217.76 432.972 217.76 431.769 213.995C431.681 213.714 431.618 213.378 431.582 212.987ZM441.769 212.925 441.769 216.417 442.762 216.417C444.105 216.417 444.777 215.828 444.777 214.651 444.777 213.5 444.105 212.925 442.762 212.925ZM368.769 212.878 368.769 215.995 369.863 215.995C370.405 215.995 370.84 215.839 371.168 215.526 371.501 215.208 371.668 214.815 371.668 214.346 371.668 213.367 371.082 212.878 369.91 212.878ZM449.246 210.987 451.769 210.987 451.769 222.19 449.246 222.19ZM439.246 210.987 443.199 210.987C446.022 210.987 447.433 212.177 447.433 214.557 447.433 215.682 447.028 216.592 446.219 217.288 445.409 217.983 444.327 218.331 442.972 218.331L441.769 218.331 441.769 222.19 439.246 222.19ZM430.121 210.987 433.113 210.987 437.097 222.19 434.347 222.19 433.551 219.698 429.566 219.698 428.777 222.19 426.043 222.19ZM393.207 210.987 402.113 210.987 402.113 213.042 398.918 213.042 398.918 222.19 396.387 222.19 396.387 213.042 393.207 213.042ZM377.246 210.987 383.707 210.987 383.707 213.042 379.769 213.042 379.769 215.534 383.433 215.534 383.433 217.581 379.769 217.581 379.769 220.143 383.965 220.143 383.965 222.19 377.246 222.19ZM366.246 210.987 370.246 210.987C372.965 210.987 374.324 212.003 374.324 214.034 374.324 214.425 374.264 214.785 374.144 215.116 374.025 215.447 373.855 215.745 373.637 216.01 373.418 216.276 373.153 216.505 372.844 216.698 372.534 216.891 372.189 217.042 371.808 217.151L371.808 217.182C371.975 217.234 372.137 217.319 372.293 217.436 372.449 217.553 372.6 217.69 372.746 217.846 372.892 218.003 373.031 218.171 373.164 218.35 373.297 218.53 373.418 218.706 373.527 218.878L375.644 222.19 372.746 222.19 371.004 219.307C370.874 219.089 370.749 218.893 370.629 218.721 370.509 218.549 370.388 218.402 370.265 218.28 370.143 218.158 370.015 218.064 369.883 217.999 369.75 217.934 369.605 217.901 369.449 217.901L368.769 217.901 368.769 222.19 366.246 222.19ZM389.082 210.8C389.665 210.8 390.182 210.835 390.633 210.905 391.083 210.975 391.499 211.083 391.879 211.229L391.879 213.565C391.691 213.435 391.487 213.32 391.265 213.221 391.044 213.122 390.816 213.04 390.582 212.975 390.347 212.91 390.114 212.862 389.883 212.831 389.651 212.8 389.431 212.784 389.222 212.784 388.936 212.784 388.676 212.811 388.441 212.866 388.207 212.921 388.009 212.997 387.847 213.096 387.686 213.195 387.561 213.314 387.472 213.452 387.384 213.59 387.34 213.745 387.34 213.917 387.34 214.104 387.389 214.272 387.488 214.421 387.587 214.569 387.728 214.71 387.91 214.842 388.092 214.975 388.314 215.105 388.574 215.233 388.834 215.361 389.129 215.492 389.457 215.628 389.905 215.815 390.307 216.014 390.664 216.225 391.021 216.436 391.327 216.675 391.582 216.94 391.837 217.206 392.032 217.509 392.168 217.85 392.303 218.191 392.371 218.589 392.371 219.042 392.371 219.667 392.252 220.191 392.015 220.616 391.778 221.04 391.457 221.384 391.051 221.647 390.644 221.91 390.172 222.099 389.633 222.214 389.094 222.328 388.525 222.385 387.926 222.385 387.311 222.385 386.726 222.333 386.172 222.229 385.617 222.125 385.137 221.969 384.73 221.76L384.73 219.26C385.183 219.641 385.676 219.926 386.207 220.116 386.738 220.306 387.275 220.401 387.816 220.401 388.134 220.401 388.411 220.372 388.648 220.315 388.885 220.258 389.083 220.178 389.242 220.077 389.401 219.975 389.519 219.855 389.597 219.717 389.676 219.579 389.715 219.43 389.715 219.268 389.715 219.049 389.652 218.854 389.527 218.682 389.402 218.51 389.232 218.352 389.015 218.206 388.799 218.06 388.543 217.919 388.246 217.784 387.949 217.648 387.629 217.51 387.285 217.37 386.41 217.005 385.758 216.56 385.328 216.034 384.898 215.508 384.683 214.872 384.683 214.128 384.683 213.544 384.801 213.043 385.035 212.624 385.269 212.204 385.588 211.859 385.992 211.589 386.396 211.318 386.863 211.119 387.394 210.991 387.926 210.863 388.488 210.8 389.082 210.8ZM419.004 210.346 421.472 210.346 421.472 222.19 419.004 222.19ZM406.972 210.159C407.472 210.159 407.889 210.211 408.222 210.315L408.222 212.237C407.905 212.112 407.6 212.05 407.308 212.05 406.517 212.05 406.121 212.479 406.121 213.339L406.121 214.19 407.949 214.19 407.949 216.01 406.121 216.01 406.121 222.19 403.66 222.19 403.66 216.01 402.316 216.01 402.316 214.19 403.66 214.19 403.66 213.198C403.66 212.286 403.957 211.552 404.551 210.995 405.144 210.438 405.952 210.159 406.972 210.159Z" fill="url(#fill1)" fill-rule="evenodd"/>
        <text fill="#000000" fill-opacity="0" font-family="Arial,Arial_MSFontService,sans-serif" font-size="12.2266" x="366.246" y="220.857">
            RESTful API
        </text>
        <path d="M363.557 296.207C363.052 296.207 362.639 296.398 362.319 296.781 361.998 297.164 361.838 297.67 361.838 298.3L361.838 298.941C361.838 299.493 361.984 299.943 362.276 300.292 362.567 300.641 362.95 300.816 363.424 300.816 363.987 300.816 364.423 300.598 364.733 300.164 365.043 299.729 365.198 299.113 365.198 298.316 365.198 296.91 364.651 296.207 363.557 296.207ZM466.916 295.98C466.52 295.98 466.178 296.144 465.889 296.472 465.6 296.8 465.424 297.209 465.362 297.699L468.307 297.699C468.307 296.553 467.843 295.98 466.916 295.98ZM429.916 295.98C429.52 295.98 429.178 296.144 428.889 296.472 428.6 296.8 428.424 297.209 428.362 297.699L431.307 297.699C431.307 296.553 430.843 295.98 429.916 295.98ZM372.916 295.98C372.521 295.98 372.178 296.144 371.889 296.472 371.6 296.8 371.424 297.209 371.362 297.699L374.307 297.699C374.307 296.553 373.843 295.98 372.916 295.98ZM450.409 294.511 452.877 294.511 452.877 302.511 450.409 302.511ZM441.401 294.511 444.041 294.511 445.432 299.441C445.588 299.998 445.679 300.472 445.705 300.863L445.737 300.863C445.773 300.493 445.869 300.035 446.026 299.488L447.448 294.511 450.026 294.511 447.049 302.511 444.237 302.511ZM440.018 294.371C440.278 294.371 440.481 294.402 440.627 294.464L440.627 296.738C440.33 296.576 439.984 296.496 439.588 296.496 439.052 296.496 438.632 296.692 438.33 297.085 438.028 297.479 437.877 298.014 437.877 298.691L437.877 302.511 435.409 302.511 435.409 294.511 437.877 294.511 437.877 295.996 437.909 295.996C438.299 294.912 439.002 294.371 440.018 294.371ZM474.385 294.316C474.739 294.316 475.099 294.343 475.463 294.398 475.828 294.453 476.187 294.532 476.541 294.636L476.541 296.542C476.229 296.36 475.894 296.223 475.537 296.132 475.181 296.041 474.83 295.996 474.487 295.996 474.325 295.996 474.173 296.01 474.03 296.039 473.886 296.067 473.76 296.109 473.651 296.164 473.541 296.218 473.455 296.289 473.393 296.374 473.33 296.46 473.299 296.558 473.299 296.667 473.299 296.813 473.346 296.938 473.44 297.042 473.534 297.147 473.656 297.236 473.807 297.312 473.958 297.387 474.126 297.455 474.311 297.515 474.496 297.575 474.679 297.636 474.862 297.699 475.19 297.813 475.487 297.938 475.752 298.074 476.018 298.209 476.246 298.368 476.436 298.55 476.626 298.733 476.772 298.946 476.873 299.191 476.975 299.436 477.026 299.727 477.026 300.066 477.026 300.54 476.923 300.945 476.717 301.281 476.511 301.617 476.238 301.89 475.897 302.101 475.556 302.312 475.162 302.466 474.717 302.562 474.272 302.658 473.81 302.707 473.33 302.707 472.45 302.707 471.635 302.571 470.885 302.3L470.885 300.3C471.291 300.545 471.696 300.727 472.1 300.847 472.504 300.967 472.885 301.027 473.244 301.027 473.682 301.027 474.027 300.967 474.28 300.847 474.532 300.727 474.659 300.545 474.659 300.3 474.659 300.144 474.601 300.014 474.487 299.91 474.372 299.805 474.225 299.714 474.045 299.636 473.866 299.558 473.669 299.488 473.455 299.425 473.242 299.363 473.036 299.292 472.838 299.214 472.52 299.095 472.241 298.966 471.998 298.828 471.756 298.69 471.553 298.529 471.389 298.347 471.225 298.165 471.1 297.954 471.014 297.714 470.928 297.475 470.885 297.191 470.885 296.863 470.885 296.415 470.983 296.029 471.178 295.707 471.373 295.384 471.634 295.119 471.959 294.914 472.285 294.708 472.657 294.557 473.076 294.46 473.496 294.364 473.932 294.316 474.385 294.316ZM466.932 294.316C468.099 294.316 469.001 294.662 469.639 295.355 470.277 296.048 470.596 296.988 470.596 298.175L470.596 299.214 465.377 299.214C465.461 300.376 466.192 300.957 467.573 300.957 468.453 300.957 469.226 300.748 469.893 300.332L469.893 302.113C469.153 302.509 468.192 302.707 467.01 302.707 465.718 302.707 464.716 302.348 464.002 301.632 463.289 300.916 462.932 299.917 462.932 298.636 462.932 297.308 463.317 296.256 464.088 295.48 464.859 294.704 465.807 294.316 466.932 294.316ZM459.424 294.316C460.367 294.316 461.049 294.441 461.471 294.691L461.471 296.785C460.955 296.399 460.38 296.207 459.744 296.207 459.036 296.207 458.475 296.414 458.061 296.828 457.647 297.242 457.44 297.813 457.44 298.542 457.44 299.251 457.638 299.807 458.034 300.21 458.429 300.614 458.974 300.816 459.666 300.816 460.281 300.816 460.882 300.623 461.471 300.238L461.471 302.222C460.914 302.545 460.109 302.707 459.057 302.707 457.828 302.707 456.833 302.334 456.073 301.589 455.312 300.845 454.932 299.884 454.932 298.707 454.932 297.347 455.339 296.276 456.155 295.492 456.97 294.708 458.06 294.316 459.424 294.316ZM429.932 294.316C431.099 294.316 432.001 294.662 432.639 295.355 433.277 296.048 433.596 296.988 433.596 298.175L433.596 299.214 428.377 299.214C428.461 300.376 429.192 300.957 430.573 300.957 431.453 300.957 432.226 300.748 432.893 300.332L432.893 302.113C432.153 302.509 431.192 302.707 430.01 302.707 428.718 302.707 427.716 302.348 427.002 301.632 426.289 300.916 425.932 299.917 425.932 298.636 425.932 297.308 426.317 296.256 427.088 295.48 427.859 294.704 428.807 294.316 429.932 294.316ZM383.479 294.316C385.25 294.316 386.135 295.415 386.135 297.613L386.135 302.511 383.674 302.511 383.674 298.066C383.674 296.826 383.231 296.207 382.346 296.207 381.919 296.207 381.567 296.371 381.291 296.699 381.015 297.027 380.877 297.443 380.877 297.949L380.877 302.511 378.409 302.511 378.409 294.511 380.877 294.511 380.877 295.777 380.909 295.777C381.497 294.803 382.354 294.316 383.479 294.316ZM372.932 294.316C374.099 294.316 375.001 294.662 375.639 295.355 376.277 296.048 376.596 296.988 376.596 298.175L376.596 299.214 371.377 299.214C371.461 300.376 372.192 300.957 373.573 300.957 374.453 300.957 375.226 300.748 375.893 300.332L375.893 302.113C375.153 302.509 374.192 302.707 373.01 302.707 371.718 302.707 370.716 302.348 370.002 301.632 369.289 300.916 368.932 299.917 368.932 298.636 368.932 297.308 369.317 296.256 370.088 295.48 370.859 294.704 371.807 294.316 372.932 294.316ZM364.479 294.316C365.515 294.316 366.316 294.671 366.881 295.382 367.446 296.093 367.729 297.061 367.729 298.285 367.729 299.618 367.399 300.688 366.741 301.496 366.082 302.303 365.205 302.707 364.112 302.707 363.148 302.707 362.414 302.332 361.909 301.582L361.877 301.582 361.877 306.191 359.409 306.191 359.409 294.511 361.877 294.511 361.877 295.714 361.909 295.714C362.518 294.782 363.375 294.316 364.479 294.316ZM400.924 293.308C400.898 293.636 400.833 293.962 400.729 294.285L399.51 298.082 402.377 298.082 401.174 294.316C401.086 294.035 401.023 293.699 400.987 293.308ZM352.494 293.292C351.609 293.292 350.906 293.624 350.385 294.289 349.864 294.953 349.604 295.832 349.604 296.925 349.604 298.035 349.864 298.912 350.385 299.558 350.906 300.204 351.588 300.527 352.432 300.527 353.302 300.527 353.992 300.213 354.502 299.585 355.013 298.958 355.268 298.087 355.268 296.972 355.268 295.811 355.021 294.907 354.526 294.261 354.031 293.615 353.354 293.292 352.494 293.292ZM391.174 293.246 391.174 296.738 392.166 296.738C393.51 296.738 394.182 296.149 394.182 294.972 394.182 293.821 393.51 293.246 392.166 293.246ZM408.651 291.308 411.174 291.308 411.174 302.511 408.651 302.511ZM399.526 291.308 402.518 291.308 406.502 302.511 403.752 302.511 402.955 300.019 398.971 300.019 398.182 302.511 395.448 302.511ZM388.651 291.308 392.604 291.308C395.427 291.308 396.838 292.498 396.838 294.878 396.838 296.003 396.433 296.914 395.623 297.609 394.813 298.304 393.731 298.652 392.377 298.652L391.174 298.652 391.174 302.511 388.651 302.511ZM421.487 291.121C422.07 291.121 422.587 291.156 423.037 291.226 423.488 291.296 423.903 291.404 424.284 291.55L424.284 293.886C424.096 293.756 423.892 293.641 423.67 293.542 423.449 293.443 423.221 293.361 422.987 293.296 422.752 293.231 422.519 293.183 422.287 293.152 422.056 293.121 421.836 293.105 421.627 293.105 421.341 293.105 421.08 293.132 420.846 293.187 420.612 293.242 420.414 293.318 420.252 293.417 420.091 293.516 419.966 293.635 419.877 293.773 419.789 293.911 419.744 294.066 419.744 294.238 419.744 294.425 419.794 294.593 419.893 294.742 419.992 294.89 420.132 295.031 420.315 295.164 420.497 295.296 420.718 295.427 420.979 295.554 421.239 295.682 421.534 295.813 421.862 295.949 422.31 296.136 422.712 296.335 423.069 296.546 423.425 296.757 423.731 296.996 423.987 297.261 424.242 297.527 424.437 297.83 424.573 298.171 424.708 298.512 424.776 298.91 424.776 299.363 424.776 299.988 424.657 300.512 424.42 300.937 424.183 301.361 423.862 301.705 423.455 301.968 423.049 302.231 422.576 302.42 422.037 302.535 421.498 302.649 420.929 302.707 420.33 302.707 419.716 302.707 419.131 302.654 418.576 302.55 418.022 302.446 417.541 302.29 417.135 302.082L417.135 299.582C417.588 299.962 418.08 300.247 418.612 300.437 419.143 300.627 419.679 300.722 420.221 300.722 420.539 300.722 420.816 300.693 421.053 300.636 421.29 300.579 421.488 300.499 421.647 300.398 421.806 300.296 421.924 300.177 422.002 300.039 422.08 299.901 422.119 299.751 422.119 299.589 422.119 299.371 422.057 299.175 421.932 299.003 421.807 298.832 421.636 298.673 421.42 298.527 421.204 298.381 420.948 298.24 420.651 298.105 420.354 297.97 420.034 297.832 419.69 297.691 418.815 297.326 418.162 296.881 417.733 296.355 417.303 295.829 417.088 295.193 417.088 294.449 417.088 293.865 417.205 293.364 417.44 292.945 417.674 292.526 417.993 292.18 418.397 291.91 418.8 291.639 419.268 291.44 419.799 291.312 420.33 291.184 420.893 291.121 421.487 291.121ZM352.565 291.121C354.164 291.121 355.457 291.644 356.444 292.691 357.431 293.738 357.924 295.118 357.924 296.832 357.924 298.592 357.412 300.011 356.389 301.089 355.366 302.167 354.031 302.707 352.385 302.707 350.781 302.707 349.474 302.184 348.463 301.14 347.453 300.096 346.948 298.735 346.948 297.058 346.948 295.287 347.461 293.855 348.487 292.761 349.513 291.667 350.872 291.121 352.565 291.121ZM451.659 290.707C452.08 290.707 452.423 290.824 452.686 291.058 452.949 291.292 453.08 291.595 453.08 291.964 453.08 292.339 452.949 292.647 452.686 292.886 452.423 293.126 452.08 293.246 451.659 293.246 451.242 293.246 450.901 293.122 450.635 292.874 450.369 292.627 450.237 292.324 450.237 291.964 450.237 291.595 450.369 291.292 450.635 291.058 450.901 290.824 451.242 290.707 451.659 290.707Z" fill="url(#fill2)" fill-rule="evenodd"/>
        <text fill="#000000" fill-opacity="0" font-family="Arial,Arial_MSFontService,sans-serif" font-size="15.4844" x="346.948" y="304.255">
            OpenPAI Services
        </text>
        <path d="M292.09 306.394C292.09 306.5 292.09 306.5 292.09 306.5 272.454 306.5 272.454 306.5 272.454 306.5 272.454 306.5 272.454 306.5 272.454 306.5 272.352 306.5 272.352 306.5 272.25 306.5 267.468 306.5 263.5 302.366 263.5 297.279 263.5 292.191 267.468 288.164 272.25 288.164 272.861 288.164 273.471 288.164 274.081 288.27 275.811 285.408 278.762 283.5 282.221 283.5 287.206 283.5 291.276 287.422 291.785 292.509 291.785 292.509 291.785 292.509 291.785 292.509 295.549 292.509 298.5 295.583 298.5 299.505 298.5 303.214 295.651 306.288 292.09 306.394Z" stroke="#0078D4" stroke-miterlimit="8" fill="#F2F2F2" fill-rule="evenodd"/>
        <path d="M295.5 293.619 295.5 308.5 283.5 308.5 283.5 280.5 295.5 280.5 295.5 293.619M286.028 284.997 292.896 284.997M286.028 299.692 292.896 299.692M286.028 303.864 292.896 303.864" stroke="#0078D4" stroke-miterlimit="8" fill="#F2F2F2" fill-rule="evenodd"/>
        <rect x="181" y="324" width="227" height="43" fill="#FFFFFF"/>
        <rect x="181" y="375" width="227" height="42" fill="#FFFFFF"/>
        <rect x="181" y="425" width="227" height="42" fill="#FFFFFF"/>
        <rect x="181" y="475" width="227" height="42" fill="#FFFFFF"/>
        <text fill="#002060" font-family="Segoe UI,Segoe UI_MSFontService,sans-serif" font-weight="700" font-size="15" transform="translate(219.449 350)">
            User Authentication<tspan x="-7.99034" y="50">Storage Management</tspan> <a href="https://github.com/microsoft/frameworkcontroller"> <tspan fill="#0070C0" x="4.35622" y="100">Job Orchestration</tspan> </a>
        </text>
        <path d="M223.805 452.001 255.555 452.001 287.305 452.001 319.055 452.001 350.805 452.001 350.805 453.001 319.055 453.001 287.305 453.001 255.555 453.001 223.805 453.001Z" fill="#0070C0" fill-rule="evenodd"/>
        <a href="https://github.com/microsoft/openpai-runtime">
            <text fill="#0070C0" font-family="Segoe UI,Segoe UI_MSFontService,sans-serif" font-weight="700" font-size="15" transform="translate(243.752 500)">
                Job Runtime
            </text>
        </a>
        <path d="M243.752 502.317 266.502 502.317 289.252 502.317 312.002 502.317 334.752 502.317 334.752 503.317 312.002 503.317 289.252 503.317 266.502 503.317 243.752 503.317Z" fill="#0070C0" fill-rule="evenodd"/>
        <rect x="415" y="324" width="236" height="43" fill="#FFFFFF"/>
        <text fill="#002060" font-family="Segoe UI,Segoe UI_MSFontService,sans-serif" font-weight="700" font-size="15" transform="translate(445.024 350)">
            User/Group Management
        </text>
        <rect x="415" y="375" width="236" height="42" fill="#FFFFFF"/>
        <text fill="#002060" font-family="Segoe UI,Segoe UI_MSFontService,sans-serif" font-weight="700" font-size="15" transform="translate(452.274 400)">
            Cluster/Job Monitoring
        </text>
        <rect x="415" y="425" width="236" height="42" fill="#FFFFFF"/>
        <a href="https://github.com/microsoft/hivedscheduler">
            <text fill="#002060" font-family="Segoe UI,Segoe UI_MSFontService,sans-serif" font-weight="700" font-size="15" transform="translate(480.857 450)">
                Job Scheduling
            </text>
        </a>
        <path d="M481.191 452.001 533.191 452.001 585.191 452.001 585.191 453.001 533.191 453.001 481.191 453.001Z" fill="#0070C0" fill-rule="evenodd"/>
        <rect x="415" y="475" width="236" height="42" fill="#FFFFFF"/>
        <text fill="#0070C0" font-family="Segoe UI,Segoe UI_MSFontService,sans-serif" font-weight="700" font-size="15" transform="translate(471.607 500)">
            Job Error Analysis
        </text>
        <path d="M471.194 502.317 512.527 502.317 553.861 502.317 595.194 502.317 595.194 503.317 553.861 503.317 512.527 503.317 471.194 503.317Z" fill="#0070C0" fill-rule="evenodd"/>
        <rect x="162" y="549" width="508" height="79" fill="#F2F2F2"/>
        <path d="M374.004 584.187C373.509 584.187 373.099 584.372 372.773 584.741 372.448 585.111 372.285 585.593 372.285 586.187L372.285 587.007C372.285 587.523 372.433 587.95 372.73 588.288 373.027 588.627 373.407 588.796 373.871 588.796 374.433 588.796 374.869 588.579 375.179 588.144 375.489 587.709 375.644 587.093 375.644 586.296 375.644 585.635 375.502 585.118 375.218 584.745 374.935 584.373 374.53 584.187 374.004 584.187ZM480.363 583.96C479.967 583.96 479.625 584.124 479.336 584.452 479.047 584.78 478.871 585.189 478.808 585.679L481.754 585.679C481.754 584.533 481.29 583.96 480.363 583.96ZM422.363 583.96C421.967 583.96 421.625 584.124 421.336 584.452 421.047 584.78 420.871 585.189 420.808 585.679L423.754 585.679C423.754 584.533 423.29 583.96 422.363 583.96ZM408.363 583.96C407.967 583.96 407.625 584.124 407.336 584.452 407.047 584.78 406.871 585.189 406.808 585.679L409.754 585.679C409.754 584.533 409.29 583.96 408.363 583.96ZM383.363 583.96C382.967 583.96 382.625 584.124 382.336 584.452 382.047 584.78 381.871 585.189 381.808 585.679L384.754 585.679C384.754 584.533 384.29 583.96 383.363 583.96ZM453.73 582.491 456.191 582.491 456.191 587.101C456.191 588.231 456.639 588.796 457.535 588.796 457.978 588.796 458.332 588.641 458.597 588.331 458.863 588.021 458.996 587.601 458.996 587.07L458.996 582.491 461.457 582.491 461.457 590.491 458.996 590.491 458.996 589.273 458.957 589.273C458.347 590.215 457.532 590.687 456.511 590.687 454.657 590.687 453.73 589.564 453.73 587.32ZM359.73 582.491 362.191 582.491 362.191 587.101C362.191 588.231 362.639 588.796 363.535 588.796 363.978 588.796 364.332 588.641 364.597 588.331 364.863 588.021 364.996 587.601 364.996 587.07L364.996 582.491 367.457 582.491 367.457 590.491 364.996 590.491 364.996 589.273 364.957 589.273C364.347 590.215 363.532 590.687 362.511 590.687 360.657 590.687 359.73 589.564 359.73 587.32ZM489.464 582.351C489.725 582.351 489.928 582.382 490.074 582.445L490.074 584.718C489.777 584.557 489.431 584.476 489.035 584.476 488.498 584.476 488.079 584.672 487.777 585.066 487.475 585.459 487.324 585.994 487.324 586.671L487.324 590.491 484.855 590.491 484.855 582.491 487.324 582.491 487.324 583.976 487.355 583.976C487.746 582.892 488.449 582.351 489.464 582.351ZM393.465 582.351C393.725 582.351 393.928 582.382 394.074 582.445L394.074 584.718C393.777 584.557 393.431 584.476 393.035 584.476 392.498 584.476 392.079 584.672 391.777 585.066 391.475 585.459 391.324 585.994 391.324 586.671L391.324 590.491 388.855 590.491 388.855 582.491 391.324 582.491 391.324 583.976 391.355 583.976C391.746 582.892 392.449 582.351 393.465 582.351ZM480.379 582.296C481.545 582.296 482.448 582.642 483.086 583.335 483.724 584.028 484.043 584.968 484.043 586.155L484.043 587.195 478.824 587.195C478.907 588.356 479.639 588.937 481.019 588.937 481.899 588.937 482.673 588.728 483.339 588.312L483.339 590.093C482.6 590.489 481.639 590.687 480.457 590.687 479.165 590.687 478.162 590.329 477.449 589.612 476.735 588.896 476.379 587.898 476.379 586.616 476.379 585.288 476.764 584.236 477.535 583.46 478.306 582.684 479.254 582.296 480.379 582.296ZM466.832 582.296C467.186 582.296 467.545 582.323 467.91 582.378 468.274 582.433 468.634 582.512 468.988 582.616L468.988 584.523C468.675 584.34 468.341 584.204 467.984 584.112 467.627 584.021 467.277 583.976 466.933 583.976 466.772 583.976 466.619 583.99 466.476 584.019 466.333 584.047 466.207 584.089 466.097 584.144 465.988 584.198 465.902 584.269 465.839 584.355 465.777 584.441 465.746 584.538 465.746 584.648 465.746 584.794 465.793 584.919 465.886 585.023 465.98 585.127 466.103 585.217 466.254 585.292 466.405 585.368 466.573 585.435 466.757 585.495 466.942 585.555 467.126 585.616 467.308 585.679 467.636 585.794 467.933 585.919 468.199 586.054 468.464 586.189 468.692 586.348 468.882 586.53 469.073 586.713 469.218 586.926 469.32 587.171 469.422 587.416 469.472 587.708 469.472 588.046 469.472 588.52 469.369 588.925 469.164 589.261 468.958 589.597 468.685 589.87 468.343 590.081 468.002 590.292 467.609 590.446 467.164 590.542 466.718 590.639 466.256 590.687 465.777 590.687 464.897 590.687 464.082 590.551 463.332 590.28L463.332 588.28C463.738 588.525 464.143 588.708 464.547 588.827 464.95 588.947 465.332 589.007 465.691 589.007 466.129 589.007 466.474 588.947 466.726 588.827 466.979 588.708 467.105 588.525 467.105 588.28 467.105 588.124 467.048 587.994 466.933 587.89 466.819 587.786 466.672 587.695 466.492 587.616 466.312 587.538 466.116 587.468 465.902 587.405 465.688 587.343 465.483 587.273 465.285 587.195 464.967 587.075 464.687 586.946 464.445 586.808 464.203 586.67 464 586.51 463.836 586.327 463.672 586.145 463.547 585.934 463.461 585.695 463.375 585.455 463.332 585.171 463.332 584.843 463.332 584.395 463.429 584.01 463.625 583.687 463.82 583.364 464.08 583.099 464.406 582.894 464.731 582.688 465.104 582.537 465.523 582.441 465.942 582.344 466.379 582.296 466.832 582.296ZM430.832 582.296C431.186 582.296 431.545 582.323 431.91 582.378 432.274 582.433 432.634 582.512 432.988 582.616L432.988 584.523C432.675 584.34 432.341 584.204 431.984 584.112 431.627 584.021 431.277 583.976 430.933 583.976 430.772 583.976 430.619 583.99 430.476 584.019 430.333 584.047 430.207 584.089 430.097 584.144 429.988 584.198 429.902 584.269 429.839 584.355 429.777 584.441 429.746 584.538 429.746 584.648 429.746 584.794 429.793 584.919 429.886 585.023 429.98 585.127 430.103 585.217 430.254 585.292 430.405 585.368 430.573 585.435 430.757 585.495 430.942 585.555 431.126 585.616 431.308 585.679 431.636 585.794 431.933 585.919 432.199 586.054 432.464 586.189 432.692 586.348 432.882 586.53 433.073 586.713 433.218 586.926 433.32 587.171 433.422 587.416 433.472 587.708 433.472 588.046 433.472 588.52 433.369 588.925 433.164 589.261 432.958 589.597 432.685 589.87 432.343 590.081 432.002 590.292 431.609 590.446 431.164 590.542 430.718 590.639 430.256 590.687 429.777 590.687 428.897 590.687 428.082 590.551 427.332 590.28L427.332 588.28C427.738 588.525 428.143 588.708 428.547 588.827 428.95 588.947 429.332 589.007 429.691 589.007 430.129 589.007 430.474 588.947 430.726 588.827 430.979 588.708 431.105 588.525 431.105 588.28 431.105 588.124 431.048 587.994 430.933 587.89 430.819 587.786 430.672 587.695 430.492 587.616 430.312 587.538 430.116 587.468 429.902 587.405 429.688 587.343 429.483 587.273 429.285 587.195 428.967 587.075 428.687 586.946 428.445 586.808 428.203 586.67 428 586.51 427.836 586.327 427.672 586.145 427.547 585.934 427.461 585.695 427.375 585.455 427.332 585.171 427.332 584.843 427.332 584.395 427.429 584.01 427.625 583.687 427.82 583.364 428.08 583.099 428.406 582.894 428.731 582.688 429.104 582.537 429.523 582.441 429.942 582.344 430.379 582.296 430.832 582.296ZM422.379 582.296C423.545 582.296 424.448 582.642 425.086 583.335 425.724 584.028 426.043 584.968 426.043 586.155L426.043 587.195 420.824 587.195C420.907 588.356 421.639 588.937 423.019 588.937 423.899 588.937 424.673 588.728 425.339 588.312L425.339 590.093C424.6 590.489 423.639 590.687 422.457 590.687 421.165 590.687 420.162 590.329 419.449 589.612 418.735 588.896 418.379 587.898 418.379 586.616 418.379 585.288 418.764 584.236 419.535 583.46 420.306 582.684 421.254 582.296 422.379 582.296ZM408.379 582.296C409.545 582.296 410.448 582.642 411.086 583.335 411.724 584.028 412.043 584.968 412.043 586.155L412.043 587.195 406.824 587.195C406.907 588.356 407.639 588.937 409.019 588.937 409.899 588.937 410.673 588.728 411.34 588.312L411.34 590.093C410.6 590.489 409.639 590.687 408.457 590.687 407.165 590.687 406.162 590.329 405.449 589.612 404.735 588.896 404.379 587.898 404.379 586.616 404.379 585.288 404.764 584.236 405.535 583.46 406.306 582.684 407.254 582.296 408.379 582.296ZM399.925 582.296C401.696 582.296 402.582 583.395 402.582 585.593L402.582 590.491 400.121 590.491 400.121 586.046C400.121 584.807 399.678 584.187 398.793 584.187 398.366 584.187 398.014 584.351 397.738 584.679 397.462 585.007 397.324 585.424 397.324 585.929L397.324 590.491 394.855 590.491 394.855 582.491 397.324 582.491 397.324 583.757 397.355 583.757C397.944 582.783 398.8 582.296 399.925 582.296ZM383.379 582.296C384.545 582.296 385.448 582.642 386.086 583.335 386.724 584.028 387.043 584.968 387.043 586.155L387.043 587.195 381.824 587.195C381.907 588.356 382.639 588.937 384.019 588.937 384.899 588.937 385.673 588.728 386.34 588.312L386.34 590.093C385.6 590.489 384.639 590.687 383.457 590.687 382.165 590.687 381.162 590.329 380.449 589.612 379.735 588.896 379.379 587.898 379.379 586.616 379.379 585.288 379.764 584.236 380.535 583.46 381.306 582.684 382.254 582.296 383.379 582.296ZM473.894 580.062 473.894 582.491 475.691 582.491 475.691 584.312 473.894 584.312 473.894 587.546C473.894 588.379 474.225 588.796 474.886 588.796 475.147 588.796 475.415 588.721 475.691 588.57L475.691 590.398C475.326 590.59 474.777 590.687 474.043 590.687 472.303 590.687 471.433 589.783 471.433 587.976L471.433 584.312 470.136 584.312 470.136 582.491 471.433 582.491 471.433 580.765ZM415.894 580.062 415.894 582.491 417.691 582.491 417.691 584.312 415.894 584.312 415.894 587.546C415.894 588.379 416.225 588.796 416.886 588.796 417.147 588.796 417.415 588.721 417.691 588.57L417.691 590.398C417.326 590.59 416.777 590.687 416.043 590.687 414.303 590.687 413.433 589.783 413.433 587.976L413.433 584.312 412.136 584.312 412.136 582.491 413.433 582.491 413.433 580.765ZM350.097 579.288 352.621 579.288 352.621 584.585 352.66 584.585C352.722 584.439 352.826 584.231 352.972 583.96L356.066 579.288 359.074 579.288 355.168 584.632 359.41 590.491 356.222 590.491 352.957 585.624C352.894 585.53 352.795 585.325 352.66 585.007L352.621 585.007 352.621 590.491 350.097 590.491ZM444.363 579.101C445.457 579.101 446.379 579.239 447.129 579.515L447.129 581.945C446.379 581.497 445.524 581.273 444.566 581.273 443.514 581.273 442.665 581.603 442.019 582.265 441.373 582.926 441.05 583.822 441.05 584.952 441.05 586.036 441.355 586.899 441.964 587.542 442.574 588.185 443.394 588.507 444.425 588.507 445.41 588.507 446.311 588.267 447.129 587.788L447.129 590.093C446.311 590.489 445.243 590.687 443.925 590.687 442.207 590.687 440.855 590.182 439.871 589.171 438.886 588.161 438.394 586.814 438.394 585.132 438.394 583.34 438.948 581.887 440.054 580.773 441.161 579.658 442.597 579.101 444.363 579.101ZM448.855 578.648 451.324 578.648 451.324 590.491 448.855 590.491ZM369.855 578.648 372.324 578.648 372.324 583.695 372.355 583.695C372.965 582.762 373.832 582.296 374.957 582.296 375.988 582.296 376.782 582.65 377.34 583.359 377.897 584.067 378.175 585.036 378.175 586.265 378.175 587.598 377.85 588.669 377.199 589.476 376.548 590.283 375.678 590.687 374.59 590.687 373.605 590.687 372.86 590.312 372.355 589.562L372.324 589.562 372.324 590.491 369.855 590.491Z" fill="url(#fill3)" fill-rule="evenodd"/>
        <text fill="#000000" fill-opacity="0" font-family="Arial,Arial_MSFontService,sans-serif" font-size="12.0391" x="350.097" y="589.182">
            Kubernetes Cluster
        </text>
        <path d="M409.071 603.702 407.618 603.89C406.816 603.994 406.415 604.356 406.415 604.976 406.415 605.257 406.512 605.487 406.708 605.667 406.903 605.847 407.167 605.937 407.501 605.937 407.964 605.937 408.342 605.777 408.634 605.456 408.925 605.136 409.071 604.731 409.071 604.241ZM390.071 603.702 388.618 603.89C387.816 603.994 387.415 604.356 387.415 604.976 387.415 605.257 387.512 605.487 387.708 605.667 387.903 605.847 388.167 605.937 388.501 605.937 388.964 605.937 389.342 605.777 389.634 605.456 389.925 605.136 390.071 604.731 390.071 604.241ZM416.524 601.187C415.977 601.187 415.548 601.4 415.235 601.827 414.923 602.254 414.766 602.856 414.766 603.632 414.766 604.299 414.915 604.826 415.212 605.214 415.509 605.602 415.915 605.796 416.43 605.796 416.941 605.796 417.354 605.599 417.669 605.206 417.984 604.813 418.141 604.294 418.141 603.648L418.141 603.015C418.141 602.51 417.992 602.079 417.692 601.722 417.393 601.365 417.003 601.187 416.524 601.187ZM450.243 600.96C449.847 600.96 449.505 601.124 449.216 601.452 448.927 601.78 448.751 602.189 448.688 602.679L451.634 602.679C451.634 601.533 451.17 600.96 450.243 600.96ZM426.243 600.96C425.847 600.96 425.505 601.124 425.216 601.452 424.927 601.78 424.751 602.189 424.688 602.679L427.634 602.679C427.634 601.533 427.17 600.96 426.243 600.96ZM459.805 599.296C461.576 599.296 462.462 600.395 462.462 602.593L462.462 607.491 460.001 607.491 460.001 603.046C460.001 601.807 459.558 601.187 458.673 601.187 458.246 601.187 457.894 601.351 457.618 601.679 457.342 602.007 457.204 602.424 457.204 602.929L457.204 607.491 454.735 607.491 454.735 599.491 457.204 599.491 457.204 600.757 457.235 600.757C457.824 599.783 458.68 599.296 459.805 599.296ZM450.259 599.296C451.425 599.296 452.328 599.642 452.966 600.335 453.604 601.028 453.923 601.968 453.923 603.155L453.923 604.195 448.704 604.195C448.787 605.356 449.519 605.937 450.899 605.937 451.779 605.937 452.553 605.728 453.219 605.312L453.219 607.093C452.48 607.489 451.519 607.687 450.337 607.687 449.045 607.687 448.042 607.329 447.329 606.612 446.615 605.896 446.259 604.898 446.259 603.616 446.259 602.288 446.644 601.236 447.415 600.46 448.186 599.684 449.134 599.296 450.259 599.296ZM436.821 599.296C437.951 599.296 438.725 599.794 439.141 600.788 439.751 599.794 440.647 599.296 441.829 599.296 443.568 599.296 444.438 600.369 444.438 602.515L444.438 607.491 441.977 607.491 441.977 602.929C441.977 601.767 441.55 601.187 440.696 601.187 440.29 601.187 439.959 601.361 439.704 601.71 439.449 602.059 439.321 602.494 439.321 603.015L439.321 607.491 436.852 607.491 436.852 602.882C436.852 601.752 436.433 601.187 435.594 601.187 435.173 601.187 434.835 601.353 434.583 601.687 434.33 602.02 434.204 602.473 434.204 603.046L434.204 607.491 431.735 607.491 431.735 599.491 434.204 599.491 434.204 600.741 434.235 600.741C434.49 600.314 434.848 599.967 435.309 599.698 435.77 599.43 436.274 599.296 436.821 599.296ZM426.259 599.296C427.425 599.296 428.328 599.642 428.966 600.335 429.604 601.028 429.923 601.968 429.923 603.155L429.923 604.195 424.704 604.195C424.787 605.356 425.519 605.937 426.899 605.937 427.779 605.937 428.553 605.728 429.219 605.312L429.219 607.093C428.48 607.489 427.519 607.687 426.337 607.687 425.045 607.687 424.042 607.329 423.329 606.612 422.615 605.896 422.259 604.898 422.259 603.616 422.259 602.288 422.644 601.236 423.415 600.46 424.186 599.684 425.134 599.296 426.259 599.296ZM415.891 599.296C416.865 599.296 417.594 599.671 418.079 600.421L418.11 600.421 418.11 599.491 420.579 599.491 420.579 606.577C420.579 608.062 420.149 609.211 419.29 610.027 418.43 610.842 417.186 611.249 415.555 611.249 414.477 611.249 413.623 611.096 412.993 610.788L412.993 608.71C413.816 609.189 414.647 609.429 415.485 609.429 416.318 609.429 416.964 609.209 417.423 608.769 417.881 608.329 418.11 607.731 418.11 606.976L418.11 606.343 418.079 606.343C417.516 607.239 416.686 607.687 415.587 607.687 414.566 607.687 413.756 607.327 413.157 606.609 412.558 605.89 412.259 604.926 412.259 603.718 412.259 602.364 412.592 601.288 413.259 600.491 413.925 599.695 414.803 599.296 415.891 599.296ZM407.969 599.296C410.251 599.296 411.391 600.434 411.391 602.71L411.391 607.491 409.055 607.491 409.055 606.343 409.024 606.343C408.488 607.239 407.693 607.687 406.641 607.687 405.865 607.687 405.255 607.467 404.809 607.027 404.364 606.586 404.141 605.999 404.141 605.265 404.141 603.713 405.061 602.817 406.899 602.577L409.071 602.288C409.071 601.413 408.597 600.976 407.649 600.976 406.696 600.976 405.79 601.26 404.93 601.827L404.93 599.968C405.274 599.791 405.744 599.635 406.341 599.499 406.937 599.364 407.48 599.296 407.969 599.296ZM399.805 599.296C401.576 599.296 402.462 600.395 402.462 602.593L402.462 607.491 400.001 607.491 400.001 603.046C400.001 601.807 399.558 601.187 398.673 601.187 398.246 601.187 397.894 601.351 397.618 601.679 397.342 602.007 397.204 602.424 397.204 602.929L397.204 607.491 394.735 607.491 394.735 599.491 397.204 599.491 397.204 600.757 397.235 600.757C397.824 599.783 398.68 599.296 399.805 599.296ZM388.969 599.296C391.251 599.296 392.391 600.434 392.391 602.71L392.391 607.491 390.055 607.491 390.055 606.343 390.024 606.343C389.488 607.239 388.693 607.687 387.641 607.687 386.865 607.687 386.255 607.467 385.809 607.027 385.364 606.586 385.141 605.999 385.141 605.265 385.141 603.713 386.061 602.817 387.899 602.577L390.071 602.288C390.071 601.413 389.597 600.976 388.649 600.976 387.696 600.976 386.79 601.26 385.93 601.827L385.93 599.968C386.274 599.791 386.744 599.635 387.341 599.499 387.937 599.364 388.48 599.296 388.969 599.296ZM467.774 597.062 467.774 599.491 469.571 599.491 469.571 601.312 467.774 601.312 467.774 604.546C467.774 605.379 468.105 605.796 468.766 605.796 469.027 605.796 469.295 605.721 469.571 605.57L469.571 607.398C469.206 607.59 468.657 607.687 467.923 607.687 466.183 607.687 465.313 606.783 465.313 604.976L465.313 601.312 464.016 601.312 464.016 599.491 465.313 599.491 465.313 597.765ZM370.977 596.288 374.673 596.288 376.962 602.929C377.144 603.46 377.277 603.994 377.36 604.53L377.407 604.53C377.548 603.911 377.696 603.372 377.852 602.913L380.141 596.288 383.743 596.288 383.743 607.491 381.251 607.491 381.251 600.788C381.251 600.064 381.282 599.265 381.345 598.39L381.282 598.39C381.152 599.077 381.035 599.572 380.93 599.874L378.305 607.491 376.243 607.491 373.571 599.952C373.498 599.749 373.381 599.228 373.22 598.39L373.149 598.39C373.217 599.494 373.251 600.463 373.251 601.296L373.251 607.491 370.977 607.491Z" fill="url(#fill4)" fill-rule="evenodd"/>
        <text fill="#000000" fill-opacity="0" font-family="Arial,Arial_MSFontService,sans-serif" font-size="14.9609" x="370.977" y="609.379">
            Management
        </text>
        <rect x="162" y="644" width="508" height="78" fill="#F2F2F2"/>
        <path d="M236.007 675.453 236.007 678.945 236.999 678.945C238.343 678.945 239.015 678.357 239.015 677.18 239.015 676.029 238.343 675.453 236.999 675.453ZM243.351 673.516 245.882 673.516 245.882 680.016C245.882 681.828 246.59 682.734 248.007 682.734 249.398 682.734 250.093 681.859 250.093 680.109L250.093 673.516 252.616 673.516 252.616 679.867C252.616 683.232 251.049 684.914 247.913 684.914 244.872 684.914 243.351 683.271 243.351 679.984ZM233.484 673.516 237.437 673.516C240.26 673.516 241.671 674.706 241.671 677.086 241.671 678.211 241.266 679.121 240.456 679.816 239.646 680.512 238.564 680.859 237.21 680.859L236.007 680.859 236.007 684.719 233.484 684.719ZM228.749 673.328C229.843 673.328 230.765 673.466 231.515 673.742L231.515 676.172C230.765 675.724 229.911 675.5 228.952 675.5 227.9 675.5 227.051 675.831 226.405 676.492 225.76 677.154 225.437 678.049 225.437 679.18 225.437 680.263 225.741 681.126 226.351 681.769 226.96 682.413 227.78 682.734 228.812 682.734 229.796 682.734 230.697 682.495 231.515 682.016L231.515 684.32C230.697 684.716 229.629 684.914 228.312 684.914 226.593 684.914 225.241 684.409 224.257 683.398 223.273 682.388 222.78 681.042 222.78 679.359 222.78 677.568 223.334 676.115 224.441 675 225.547 673.885 226.984 673.328 228.749 673.328Z" fill="url(#fill5)" fill-rule="evenodd"/>
        <text fill="#000000" fill-opacity="0" font-family="Arial,Arial_MSFontService,sans-serif" font-size="11.5859" x="222.78" y="683.466">
            CPU
        </text>
        <path d="M343.194 675.453 343.194 678.945 344.186 678.945C345.53 678.945 346.202 678.357 346.202 677.18 346.202 676.029 345.53 675.453 344.186 675.453ZM350.538 673.516 353.069 673.516 353.069 680.016C353.069 681.828 353.777 682.734 355.194 682.734 356.585 682.734 357.28 681.859 357.28 680.109L357.28 673.516 359.803 673.516 359.803 679.867C359.803 683.232 358.236 684.914 355.1 684.914 352.059 684.914 350.538 683.271 350.538 679.984ZM340.67 673.516 344.624 673.516C347.447 673.516 348.858 674.706 348.858 677.086 348.858 678.211 348.453 679.121 347.643 679.816 346.833 680.512 345.751 680.859 344.397 680.859L343.194 680.859 343.194 684.719 340.67 684.719ZM335.202 673.328C336.389 673.328 337.436 673.492 338.342 673.82L338.342 676.187C337.478 675.687 336.42 675.437 335.17 675.437 334.124 675.437 333.271 675.777 332.612 676.457 331.953 677.137 331.624 678.044 331.624 679.18 331.624 680.331 331.919 681.221 332.51 681.852 333.101 682.482 333.9 682.797 334.905 682.797 335.509 682.797 335.988 682.711 336.342 682.539L336.342 680.352 334.1 680.352 334.1 678.336 338.866 678.336 338.866 683.969C337.772 684.599 336.413 684.914 334.788 684.914 332.986 684.914 331.565 684.415 330.526 683.418 329.487 682.421 328.967 681.047 328.967 679.297 328.967 677.536 329.535 676.102 330.67 674.992 331.806 673.883 333.316 673.328 335.202 673.328Z" fill="url(#fill6)" fill-rule="evenodd"/>
        <text fill="#000000" fill-opacity="0" font-family="Arial,Arial_MSFontService,sans-serif" font-size="11.5859" x="328.967" y="683.466">
            GPU
        </text>
        <path d="M467.77 675.516C467.744 675.844 467.678 676.169 467.574 676.492L466.356 680.289 469.223 680.289 468.02 676.523C467.931 676.242 467.869 675.906 467.832 675.516ZM444.02 675.453 444.02 678.945 445.012 678.945C446.356 678.945 447.027 678.357 447.027 677.18 447.027 676.029 446.356 675.453 445.012 675.453ZM466.371 673.516 469.363 673.516 473.348 684.719 470.598 684.719 469.801 682.227 465.816 682.227 465.027 684.719 462.293 684.719ZM441.496 673.516 445.449 673.516C448.272 673.516 449.684 674.706 449.684 677.086 449.684 678.211 449.279 679.121 448.469 679.816 447.659 680.512 446.577 680.859 445.223 680.859L444.02 680.859 444.02 684.719 441.496 684.719ZM433.496 673.516 439.973 673.516 439.973 675.57 436.02 675.57 436.02 678.32 439.652 678.32 439.652 680.367 436.02 680.367 436.02 684.719 433.496 684.719ZM457.027 673.328C458.215 673.328 459.262 673.492 460.168 673.82L460.168 676.187C459.303 675.687 458.246 675.437 456.996 675.437 455.949 675.437 455.096 675.777 454.438 676.457 453.779 677.137 453.449 678.044 453.449 679.18 453.449 680.331 453.745 681.221 454.336 681.852 454.927 682.482 455.725 682.797 456.731 682.797 457.335 682.797 457.814 682.711 458.168 682.539L458.168 680.352 455.926 680.352 455.926 678.336 460.691 678.336 460.691 683.969C459.598 684.599 458.238 684.914 456.613 684.914 454.811 684.914 453.391 684.415 452.352 683.418 451.313 682.421 450.793 681.047 450.793 679.297 450.793 677.536 451.361 676.102 452.496 674.992 453.632 673.883 455.142 673.328 457.027 673.328Z" fill="url(#fill7)" fill-rule="evenodd"/>
        <text fill="#000000" fill-opacity="0" font-family="Arial,Arial_MSFontService,sans-serif" font-size="11.5859" x="433.496" y="683.466">
            FPGA
        </text>
        <path d="M598.556 680.93 597.103 681.117C596.301 681.221 595.9 681.583 595.9 682.203 595.9 682.484 595.997 682.715 596.193 682.894 596.388 683.074 596.652 683.164 596.986 683.164 597.449 683.164 597.827 683.004 598.118 682.684 598.41 682.363 598.556 681.958 598.556 681.469ZM586.986 679.906 586.986 682.859 588.353 682.859C588.936 682.859 589.393 682.724 589.724 682.453 590.055 682.182 590.22 681.812 590.22 681.344 590.22 680.896 590.057 680.544 589.732 680.289 589.406 680.034 588.952 679.906 588.368 679.906ZM615.993 678.414C615.446 678.414 615.019 678.629 614.712 679.059 614.405 679.488 614.251 680.078 614.251 680.828 614.251 681.531 614.4 682.073 614.696 682.453 614.993 682.833 615.405 683.023 615.931 683.023 616.431 683.023 616.838 682.823 617.154 682.422 617.469 682.021 617.626 681.49 617.626 680.828L617.626 680.227C617.626 679.706 617.475 679.273 617.173 678.93 616.871 678.586 616.478 678.414 615.993 678.414ZM579.22 676.719 581.689 676.719 581.689 684.719 579.22 684.719ZM565.22 676.719 567.689 676.719 567.689 684.719 565.22 684.719ZM608.29 676.523C610.061 676.523 610.946 677.622 610.946 679.82L610.946 684.719 608.486 684.719 608.486 680.273C608.486 679.034 608.043 678.414 607.157 678.414 606.73 678.414 606.379 678.578 606.103 678.906 605.827 679.234 605.689 679.651 605.689 680.156L605.689 684.719 603.22 684.719 603.22 676.719 605.689 676.719 605.689 677.984 605.72 677.984C606.308 677.01 607.165 676.523 608.29 676.523ZM597.454 676.523C599.736 676.523 600.876 677.661 600.876 679.937L600.876 684.719 598.54 684.719 598.54 683.57 598.509 683.57C597.973 684.466 597.178 684.914 596.126 684.914 595.35 684.914 594.739 684.694 594.294 684.254 593.849 683.814 593.626 683.227 593.626 682.492 593.626 680.94 594.545 680.044 596.384 679.805L598.556 679.516C598.556 678.641 598.082 678.203 597.134 678.203 596.181 678.203 595.275 678.487 594.415 679.055L594.415 677.195C594.759 677.018 595.229 676.862 595.825 676.727 596.422 676.591 596.965 676.523 597.454 676.523ZM574.29 676.523C576.061 676.523 576.946 677.622 576.946 679.82L576.946 684.719 574.486 684.719 574.486 680.273C574.486 679.034 574.043 678.414 573.157 678.414 572.73 678.414 572.379 678.578 572.103 678.906 571.827 679.234 571.689 679.651 571.689 680.156L571.689 684.719 569.22 684.719 569.22 676.719 571.689 676.719 571.689 677.984 571.72 677.984C572.308 677.01 573.165 676.523 574.29 676.523ZM554.29 676.523C556.061 676.523 556.946 677.622 556.946 679.82L556.946 684.719 554.486 684.719 554.486 680.273C554.486 679.034 554.043 678.414 553.157 678.414 552.73 678.414 552.379 678.578 552.103 678.906 551.827 679.234 551.689 679.651 551.689 680.156L551.689 684.719 549.22 684.719 549.22 676.719 551.689 676.719 551.689 677.984 551.72 677.984C552.308 677.01 553.165 676.523 554.29 676.523ZM586.986 675.375 586.986 678.031 588.095 678.031C588.616 678.031 589.026 677.905 589.325 677.652 589.625 677.4 589.775 677.052 589.775 676.609 589.775 675.786 589.16 675.375 587.931 675.375ZM584.462 673.516 588.54 673.516C589.79 673.516 590.751 673.745 591.423 674.203 592.095 674.661 592.431 675.307 592.431 676.141 592.431 676.745 592.226 677.273 591.818 677.727 591.409 678.18 590.887 678.495 590.251 678.672L590.251 678.703C591.048 678.802 591.685 679.096 592.161 679.586 592.638 680.076 592.876 680.672 592.876 681.375 592.876 682.401 592.509 683.215 591.775 683.816 591.04 684.418 590.038 684.719 588.767 684.719L584.462 684.719ZM544.462 673.516 546.986 673.516 546.986 684.719 544.462 684.719ZM580.47 672.914C580.892 672.914 581.234 673.031 581.497 673.266 581.76 673.5 581.892 673.802 581.892 674.172 581.892 674.547 581.76 674.854 581.497 675.094 581.234 675.333 580.892 675.453 580.47 675.453 580.053 675.453 579.712 675.329 579.446 675.082 579.181 674.835 579.048 674.531 579.048 674.172 579.048 673.802 579.181 673.5 579.446 673.266 579.712 673.031 580.053 672.914 580.47 672.914ZM566.47 672.914C566.892 672.914 567.234 673.031 567.497 673.266 567.76 673.5 567.892 673.802 567.892 674.172 567.892 674.547 567.76 674.854 567.497 675.094 567.234 675.333 566.892 675.453 566.47 675.453 566.053 675.453 565.712 675.329 565.446 675.082 565.181 674.835 565.048 674.531 565.048 674.172 565.048 673.802 565.181 673.5 565.446 673.266 565.712 673.031 566.053 672.914 566.47 672.914ZM617.579 672.875 620.048 672.875 620.048 684.719 617.579 684.719 617.579 683.617 617.548 683.617C616.986 684.482 616.16 684.914 615.071 684.914 614.071 684.914 613.267 684.561 612.657 683.855 612.048 683.15 611.743 682.164 611.743 680.898 611.743 679.576 612.079 678.516 612.751 677.719 613.423 676.922 614.303 676.523 615.392 676.523 616.423 676.523 617.142 676.893 617.548 677.633L617.579 677.633ZM563.189 672.687C563.689 672.687 564.105 672.74 564.439 672.844L564.439 674.766C564.121 674.641 563.816 674.578 563.525 674.578 562.733 674.578 562.337 675.008 562.337 675.867L562.337 676.719 564.165 676.719 564.165 678.539 562.337 678.539 562.337 684.719 559.876 684.719 559.876 678.539 558.532 678.539 558.532 676.719 559.876 676.719 559.876 675.727C559.876 674.815 560.173 674.081 560.767 673.523 561.361 672.966 562.168 672.687 563.189 672.687Z" fill="url(#fill8)" fill-rule="evenodd"/>
        <text fill="#000000" fill-opacity="0" font-family="Arial,Arial_MSFontService,sans-serif" font-size="12.2266" x="544.462" y="683.386">
            InfiniBand
        </text>
        <path d="M294.059 216.726C294.5 216.726 294.5 216.726 294.5 216.726 294.5 231.116 294.5 231.116 294.5 231.116 294.5 232.99 288.457 234.5 280.995 234.5 273.543 234.5 267.5 232.99 267.5 231.116 267.5 216.726 267.5 216.726 267.5 216.726 267.941 216.726 267.941 216.726 267.941 216.726 269.436 218.189 274.715 219.267 280.995 219.267 287.285 219.267 292.554 218.189 294.059 216.726ZM280.995 212.5C273.543 212.5 267.5 214.01 267.5 215.884 267.5 217.751 273.543 219.267 280.995 219.267 288.457 219.267 294.5 217.751 294.5 215.884 294.5 214.01 288.457 212.5 280.995 212.5Z" stroke="#0078D4" stroke-linecap="square" stroke-miterlimit="8" fill="none" fill-rule="evenodd"/>
        <path d="M266 210C266 206.134 272.716 203 281 203 289.284 203 296 206.134 296 210 296 213.866 289.284 217 281 217 272.716 217 266 213.866 266 210Z" fill="#F2F2F2" fill-rule="evenodd"/>
        <path d="M270.5 195.5C270.5 199.802 270.5 199.802 270.5 199.802M278.761 195.5C278.761 199.802 278.761 199.802 278.761 199.802M286.933 195.5C286.933 199.802 286.933 199.802 286.933 199.802M276.067 198.458C276.067 196.844 276.067 196.844 276.067 196.844 276.067 196.127 275.439 195.5 274.631 195.5 274.631 195.5 274.631 195.5 274.631 195.5 273.823 195.5 273.194 196.127 273.194 196.844 273.194 198.458 273.194 198.458 273.194 198.458 273.194 199.175 273.823 199.892 274.631 199.892 274.631 199.892 274.631 199.892 274.631 199.892 275.439 199.892 276.067 199.175 276.067 198.458ZM284.239 198.458C284.239 196.844 284.239 196.844 284.239 196.844 284.239 196.127 283.61 195.5 282.802 195.5 282.802 195.5 282.802 195.5 282.802 195.5 282.084 195.5 281.455 196.127 281.455 196.844 281.455 198.458 281.455 198.458 281.455 198.458 281.455 199.175 282.084 199.892 282.802 199.892 282.802 199.892 282.802 199.892 282.802 199.892 283.61 199.892 284.239 199.175 284.239 198.458ZM292.5 198.458C292.5 196.844 292.5 196.844 292.5 196.844 292.5 196.127 291.782 195.5 291.063 195.5 291.063 195.5 291.063 195.5 291.063 195.5 290.255 195.5 289.627 196.127 289.627 196.844 289.627 198.458 289.627 198.458 289.627 198.458 289.627 199.175 290.255 199.892 291.063 199.892 291.063 199.892 291.063 199.892 291.063 199.892 291.782 199.892 292.5 199.175 292.5 198.458ZM270.5 210.109C270.5 214.5 270.5 214.5 270.5 214.5M278.761 210.109C278.761 214.5 278.761 214.5 278.761 214.5M286.933 210.109C286.933 214.5 286.933 214.5 286.933 214.5M276.067 213.066C276.067 211.542 276.067 211.542 276.067 211.542 276.067 210.736 275.439 210.109 274.631 210.109 274.631 210.109 274.631 210.109 274.631 210.109 273.823 210.109 273.194 210.736 273.194 211.542 273.194 213.066 273.194 213.066 273.194 213.066 273.194 213.873 273.823 214.5 274.631 214.5 274.631 214.5 274.631 214.5 274.631 214.5 275.439 214.5 276.067 213.873 276.067 213.066ZM284.239 213.066C284.239 211.542 284.239 211.542 284.239 211.542 284.239 210.736 283.61 210.109 282.802 210.109 282.802 210.109 282.802 210.109 282.802 210.109 282.084 210.109 281.455 210.736 281.455 211.542 281.455 213.066 281.455 213.066 281.455 213.066 281.455 213.873 282.084 214.5 282.802 214.5 282.802 214.5 282.802 214.5 282.802 214.5 283.61 214.5 284.239 213.873 284.239 213.066ZM292.5 213.066C292.5 211.542 292.5 211.542 292.5 211.542 292.5 210.736 291.782 210.109 291.063 210.109 291.063 210.109 291.063 210.109 291.063 210.109 290.255 210.109 289.627 210.736 289.627 211.542 289.627 213.066 289.627 213.066 289.627 213.066 289.627 213.873 290.255 214.5 291.063 214.5 291.063 214.5 291.063 214.5 291.063 214.5 291.782 214.5 292.5 213.873 292.5 213.066ZM276.067 202.939C276.067 207.241 276.067 207.241 276.067 207.241M284.239 202.939C284.239 207.241 284.239 207.241 284.239 207.241M273.374 205.896C273.374 204.283 273.374 204.283 273.374 204.283 273.374 203.566 272.745 202.939 271.937 202.939 271.937 202.939 271.937 202.939 271.937 202.939 271.129 202.939 270.5 203.566 270.5 204.283 270.5 205.896 270.5 205.896 270.5 205.896 270.5 206.613 271.129 207.33 271.937 207.33 271.937 207.33 271.937 207.33 271.937 207.33 272.745 207.33 273.374 206.613 273.374 205.896ZM281.545 205.896C281.545 204.283 281.545 204.283 281.545 204.283 281.545 203.566 280.916 202.939 280.108 202.939 280.108 202.939 280.108 202.939 280.108 202.939 279.39 202.939 278.761 203.566 278.761 204.283 278.761 205.896 278.761 205.896 278.761 205.896 278.761 206.613 279.39 207.33 280.108 207.33 280.108 207.33 280.108 207.33 280.108 207.33 280.916 207.33 281.545 206.613 281.545 205.896ZM289.806 205.896C289.806 204.283 289.806 204.283 289.806 204.283 289.806 203.566 289.088 202.939 288.369 202.939 288.369 202.939 288.369 202.939 288.369 202.939 287.561 202.939 286.933 203.566 286.933 204.283 286.933 205.896 286.933 205.896 286.933 205.896 286.933 206.613 287.561 207.33 288.369 207.33 288.369 207.33 288.369 207.33 288.369 207.33 289.088 207.33 289.806 206.613 289.806 205.896ZM292.5 202.939C292.5 207.241 292.5 207.241 292.5 207.241" stroke="#0078D4" stroke-linecap="square" stroke-miterlimit="8" fill="none" fill-rule="evenodd"/>
        <path d="M268.063 594.5C263.97 594.5 263.97 594.5 263.97 594.5 263.97 591.728 263.97 591.728 263.97 591.728 266.741 591.728 266.741 591.728 266.741 591.728 266.741 590.24 266.741 590.24 266.741 590.24 269.385 590.24 269.385 590.24 269.385 590.24 269.385 591.728 269.385 591.728 269.385 591.728 271.967 591.728 271.967 591.728 271.967 591.728 271.967 594.5 271.967 594.5 271.967 594.5L268.063 594.5ZM263.97 593.08C259.5 593.08 259.5 593.08 259.5 593.08M271.967 593.08C276.5 593.08 276.5 593.08 276.5 593.08M268 590.24C268 588.347 268 588.347 268 588.347M271.526 588.279C271.526 576.447 271.526 576.447 271.526 576.447 271.526 575.906 271.148 575.5 270.645 575.5 265.356 575.5 265.356 575.5 265.356 575.5 264.852 575.5 264.474 575.906 264.474 576.447 264.474 588.279 264.474 588.279 264.474 588.279L271.526 588.279ZM266.426 578.002C269.574 578.002 269.574 578.002 269.574 578.002M266.426 583.141C269.574 583.141 269.574 583.141 269.574 583.141M266.426 585.642C269.574 585.642 269.574 585.642 269.574 585.642" stroke="#0078D4" stroke-miterlimit="8" fill="none" fill-rule="evenodd"/>
        <path d="M294.567 594.5C290.233 594.5 290.233 594.5 290.233 594.5 290.233 591.728 290.233 591.728 290.233 591.728 293.167 591.728 293.167 591.728 293.167 591.728 293.167 590.24 293.167 590.24 293.167 590.24 295.967 590.24 295.967 590.24 295.967 590.24 295.967 591.728 295.967 591.728 295.967 591.728 298.7 591.728 298.7 591.728 298.7 591.728 298.7 594.5 298.7 594.5 298.7 594.5L294.567 594.5ZM290.233 593.08C285.5 593.08 285.5 593.08 285.5 593.08M298.7 593.08C303.5 593.08 303.5 593.08 303.5 593.08M294.5 590.24C294.5 588.347 294.5 588.347 294.5 588.347M298.233 588.279C298.233 576.447 298.233 576.447 298.233 576.447 298.233 575.906 297.833 575.5 297.3 575.5 291.7 575.5 291.7 575.5 291.7 575.5 291.167 575.5 290.767 575.906 290.767 576.447 290.767 588.279 290.767 588.279 290.767 588.279L298.233 588.279ZM292.833 578.002C296.167 578.002 296.167 578.002 296.167 578.002M292.833 583.141C296.167 583.141 296.167 583.141 296.167 583.141M292.833 585.642C296.167 585.642 296.167 585.642 296.167 585.642" stroke="#0078D4" stroke-miterlimit="8" fill="none" fill-rule="evenodd"/>
        <path d="M281.433 591.5C285.767 591.5 285.767 591.5 285.767 591.5 285.767 594.272 285.767 594.272 285.767 594.272 282.833 594.272 282.833 594.272 282.833 594.272 282.833 595.76 282.833 595.76 282.833 595.76 280.033 595.76 280.033 595.76 280.033 595.76 280.033 594.272 280.033 594.272 280.033 594.272 277.3 594.272 277.3 594.272 277.3 594.272 277.3 591.5 277.3 591.5 277.3 591.5L281.433 591.5ZM285.767 592.92C290.5 592.92 290.5 592.92 290.5 592.92M277.3 592.92C272.5 592.92 272.5 592.92 272.5 592.92M281.5 595.76C281.5 597.653 281.5 597.653 281.5 597.653M277.767 597.721C277.767 609.553 277.767 609.553 277.767 609.553 277.767 610.094 278.167 610.5 278.7 610.5 284.3 610.5 284.3 610.5 284.3 610.5 284.833 610.5 285.233 610.094 285.233 609.553 285.233 597.721 285.233 597.721 285.233 597.721L277.767 597.721ZM283.167 607.998C279.833 607.998 279.833 607.998 279.833 607.998M283.167 602.859C279.833 602.859 279.833 602.859 279.833 602.859M283.167 600.358C279.833 600.358 279.833 600.358 279.833 600.358" stroke="#0078D4" stroke-miterlimit="8" fill="none" fill-rule="evenodd"/>
    </g>
</svg>
